<svg width="204" height="204" viewBox="0 0 204 204" fill="none" xmlns="http://www.w3.org/2000/svg">
<path d="M110.211 116.747L102.101 109.354L93.8498 116.756L88.6143 133.574L102.161 124.184L115.324 133.573L110.211 116.747ZM147.765 156.805L102.101 10.2006L56.4373 156.806L72.6399 145.246L102.102 50.6581L131.562 145.248L147.765 156.805Z" fill="white"/>
<path d="M138.491 86.3004L141.538 96.0857L155.241 86.3091L138.491 86.3004ZM72.0871 66.3225H21.129L38.4334 78.6605H68.2455L72.0871 66.3225ZM65.8721 86.2925L62.8178 96.0843L49.1089 86.2925H65.8721ZM132.271 66.3319L136.117 78.6691H165.979L183.234 66.3319H132.271Z" fill="white"/>
<path d="M176.55 176.448H171.17V184.445C171.17 184.906 171.159 185.293 171.135 185.612C171.111 185.929 171.058 186.221 170.981 186.492H176.55V176.448ZM165.051 186.492C165.655 186.492 166.048 186.313 166.231 185.956C166.414 185.6 166.506 185.081 166.506 184.399V172.495H181.214V186.492H183.477V193.8H178.835V190.443H168.051V193.8H163.411V186.492H165.051ZM150.057 180.732H151.604C153.317 180.732 154.176 179.986 154.176 178.495C154.176 177.003 153.317 176.256 151.604 176.256H150.057V180.732ZM150.057 190.442H145.392V172.495H152.819C154.833 172.495 156.376 173.02 157.447 174.066C158.518 175.113 159.053 176.589 159.053 178.495C159.053 180.399 158.518 181.875 157.447 182.922C156.376 183.969 154.833 184.494 152.819 184.494H150.057V190.442ZM133.181 183.78L131.086 177.805L128.992 183.78H133.181ZM134.419 187.326H127.752L126.682 190.443H121.709L128.54 172.496H133.633L140.464 190.443H135.489L134.419 187.326ZM112.59 190.443V176.448H118.184V172.496H107.926V190.443H112.59ZM89.9073 172.496H85.2432V190.443H89.9073V183.041H96.6434V190.443H101.31V172.496H96.6434V179.423H89.9073V172.496ZM73.0326 183.78L70.9369 177.805L68.8427 183.78H73.0326ZM74.2697 187.326H67.6034L66.5333 190.443H61.5597L68.3915 172.496H73.4838L80.3156 190.443H75.3406L74.2697 187.326ZM48.8698 186.826H49.8946C51.0684 186.826 51.909 186.673 52.4178 186.373C52.9251 186.072 53.1785 185.588 53.1785 184.922C53.1785 184.255 52.9251 183.772 52.4178 183.469C51.909 183.168 51.0684 183.017 49.8946 183.017H48.8698V186.826ZM48.8698 179.541H49.7269C51.1871 179.541 51.9169 178.963 51.9169 177.804C51.9169 176.646 51.1871 176.066 49.7269 176.066H48.8698V179.541ZM44.2064 172.496H51.1562C52.8071 172.496 54.0608 172.893 54.9164 173.687C55.7728 174.479 56.2018 175.623 56.2018 177.114C56.2018 178.019 56.0398 178.769 55.7138 179.363C55.3893 179.958 54.8941 180.461 54.2263 180.874C54.8941 181.002 55.4598 181.196 55.9283 181.457C56.3961 181.721 56.7768 182.041 57.0711 182.422C57.3662 182.803 57.5742 183.233 57.7016 183.708C57.8297 184.185 57.8923 184.692 57.8923 185.232C57.8923 186.072 57.7447 186.818 57.4525 187.468C57.1596 188.119 56.7466 188.665 56.2147 189.112C55.6836 189.555 55.0366 189.888 54.2745 190.111C53.5131 190.331 52.6545 190.443 51.7039 190.443H44.2064V172.496ZM31.9951 183.78L29.9002 177.805L27.8059 183.78H31.9951ZM33.2329 187.326H26.5674L25.4958 190.443H20.5229L27.3547 172.496H32.4463L39.2788 190.443H34.3038L33.2329 187.326Z" fill="white"/>
</svg>
