<svg width="178" height="134" viewBox="0 0 178 134" fill="none" xmlns="http://www.w3.org/2000/svg">
<path d="M13.7803 113.767H5.28082L18.3638 88.396H27.7533L40.2578 113.767H30.8238L28.9103 109.211H15.7828L13.7803 113.767ZM26.6408 103.672L22.5913 94.426L18.3193 103.672H26.6408Z" fill="white"/>
<path d="M42.186 88.3953H50.3295V113.766H42.186V88.3953Z" fill="white"/>
<path d="M54.468 88.3953H62.6115V93.5767H54.468V88.3953ZM54.468 96.078H62.6115V113.766H54.468V96.078Z" fill="white"/>
<path d="M67.0576 88.3756H75.2011V98.6043C76.1801 97.6216 77.2481 96.8623 78.4496 96.3709C79.6511 95.8796 80.9416 95.6116 82.3656 95.6116C85.1246 95.6116 87.3496 96.5049 89.0406 98.2916C90.7316 100.078 91.5771 102.446 91.5771 105.349C91.5771 108.029 90.7316 110.173 89.0851 111.781C87.4386 113.389 85.2136 114.193 82.4546 114.193C80.9416 114.193 79.5621 113.925 78.3161 113.344C77.0701 112.808 76.0466 111.96 75.1566 110.888C75.1566 111.468 75.1566 112.004 75.0676 112.496C75.0231 112.987 74.9341 113.389 74.8451 113.746H66.7016C66.7906 113.434 66.8796 112.987 66.9241 112.496C66.9686 112.004 67.0131 111.424 67.0131 110.798V88.3756M83.3891 104.992C83.3891 103.428 83.0331 102.222 82.2766 101.284C81.5646 100.391 80.5411 99.9443 79.2951 99.9443C77.9601 99.9443 76.9366 100.391 76.1801 101.24C75.4681 102.088 75.1121 103.384 75.1121 105.036C75.1121 106.6 75.4681 107.806 76.1801 108.654C76.8921 109.503 77.9156 109.95 79.2061 109.95C80.4966 109.95 81.4756 109.503 82.2321 108.61C82.9886 107.716 83.3891 106.51 83.3891 104.992Z" fill="white"/>
<path d="M110.178 110.923C109.421 111.95 108.398 112.71 107.152 113.201C105.906 113.692 104.437 113.96 102.657 113.96C100.165 113.96 98.2072 113.514 96.8722 112.62C95.5372 111.727 94.8697 110.476 94.8697 108.824C94.8697 106.59 96.0267 104.982 98.3407 104C100.655 103.017 104.571 102.481 110.044 102.436C110.044 102.392 110.044 102.347 110.044 102.258C110.044 102.168 110.044 102.079 110.044 102.034C110.044 101.141 109.777 100.471 109.243 100.024C108.709 99.5777 107.908 99.3543 106.796 99.3543C105.817 99.3543 105.06 99.533 104.526 99.8457C103.992 100.158 103.681 100.65 103.592 101.32H96.0712C96.1157 99.3543 97.0502 97.8803 98.8302 96.9423C100.655 96.0043 103.414 95.513 107.152 95.513C110.712 95.513 113.382 96.049 115.162 97.2103C116.897 98.327 117.787 100.024 117.787 102.302V111.325C117.787 111.861 117.832 112.352 117.876 112.665C117.921 113.022 118.01 113.335 118.143 113.603H110.578C110.445 113.201 110.311 112.754 110.267 112.308C110.222 111.861 110.178 111.414 110.178 110.923ZM110 105.876C107.374 105.876 105.55 106.054 104.615 106.412C103.681 106.769 103.191 107.35 103.191 108.198C103.191 108.779 103.414 109.226 103.903 109.583C104.348 109.896 105.016 110.074 105.861 110.074C107.241 110.074 108.264 109.762 108.976 109.092C109.688 108.466 110 107.484 110 106.144V105.876Z" fill="white"/>
<path d="M121.514 88.3756H129.658V98.6043C130.637 97.6216 131.705 96.8623 132.906 96.3709C134.108 95.8796 135.398 95.6116 136.822 95.6116C139.581 95.6116 141.806 96.5049 143.497 98.2916C145.188 100.078 146.034 102.446 146.034 105.349C146.034 108.029 145.188 110.173 143.542 111.781C141.895 113.389 139.67 114.193 136.911 114.193C135.398 114.193 134.019 113.925 132.773 113.344C131.527 112.808 130.503 111.96 129.613 110.888C129.613 111.468 129.569 112.004 129.524 112.496C129.48 112.987 129.391 113.389 129.302 113.746H121.158C121.247 113.434 121.336 112.987 121.381 112.496C121.425 112.004 121.47 111.424 121.47 110.798V88.3756M137.846 104.992C137.846 103.428 137.49 102.222 136.733 101.284C136.021 100.391 134.998 99.9443 133.752 99.9443C132.417 99.9443 131.393 100.391 130.681 101.24C129.969 102.088 129.613 103.384 129.613 105.036C129.613 106.6 129.969 107.806 130.681 108.654C131.393 109.503 132.417 109.95 133.707 109.95C134.953 109.95 135.977 109.503 136.733 108.61C137.49 107.716 137.846 106.51 137.846 104.992Z" fill="white"/>
<path d="M164.635 110.923C163.879 111.95 162.855 112.71 161.609 113.201C160.363 113.692 158.895 113.96 157.115 113.96C154.623 113.96 152.665 113.514 151.33 112.62C149.995 111.727 149.327 110.476 149.327 108.824C149.327 106.59 150.484 104.982 152.798 104C155.112 103.017 159.028 102.481 164.502 102.436C164.502 102.392 164.502 102.347 164.502 102.258C164.502 102.168 164.502 102.079 164.502 102.034C164.502 101.141 164.235 100.471 163.701 100.024C163.167 99.5777 162.366 99.3543 161.253 99.3543C160.274 99.3543 159.518 99.533 158.984 99.8457C158.45 100.158 158.138 100.65 158.049 101.32H150.529C150.573 99.3543 151.508 97.8803 153.288 96.9423C155.112 96.0043 157.871 95.513 161.609 95.513C165.169 95.513 167.839 96.049 169.619 97.2103C171.355 98.327 172.245 100.024 172.245 102.302V111.325C172.245 111.861 172.289 112.352 172.334 112.665C172.378 113.022 172.467 113.335 172.601 113.603H165.036C164.902 113.201 164.769 112.754 164.724 112.308C164.68 111.861 164.635 111.414 164.635 110.923ZM164.457 105.876C161.832 105.876 160.052 106.054 159.073 106.412C158.138 106.769 157.649 107.35 157.649 108.198C157.649 108.779 157.871 109.226 158.361 109.583C158.806 109.896 159.473 110.074 160.319 110.074C161.698 110.074 162.722 109.762 163.434 109.092C164.146 108.466 164.457 107.484 164.457 106.144V105.876Z" fill="white"/>
<path d="M53.6259 68.8359C53.1809 68.7912 52.4689 68.3892 51.9794 67.9872C47.2179 63.2972 53.3144 57.8926 60.4344 54.7659V45.8326C62.0809 46.9046 63.0154 46.9492 63.0599 47.0833L68.4889 41.6786L66.6644 37.0332C82.5509 31.5392 88.9144 29.4399 101.819 27.2513L99.5054 25.0626L103.288 22.9186C111.965 25.7772 120.153 26.5366 118.729 33.8619C119.085 28.9039 112.944 27.0279 103.599 24.3926L101.775 25.5092L105.246 28.3679C89.8044 31.0479 80.2814 34.0852 68.9784 38.0159L70.5359 42.0359L64.8399 47.7086C65.7744 47.9766 75.6979 51.2819 85.9774 44.0906C85.9774 44.0906 86.1999 43.9566 86.1999 43.8672C85.8884 43.3759 85.1764 42.7952 84.3309 42.0359C87.3569 42.2592 89.3149 44.8946 88.9589 47.6639H87.5349C87.6239 46.7706 87.4459 45.7879 87.1344 45.1626C79.1689 51.0139 69.9129 51.8626 62.0364 49.0933V56.0166C58.2094 57.3566 51.4009 61.5999 51.4454 65.7092C51.7124 67.6299 52.6914 68.3446 53.6259 68.8359Z" fill="white"/>
<path d="M86.2055 66.5474C77.6615 70.8801 69.4735 74.3641 56.88 74.8554C40.4595 74.4981 37.923 63.5547 45.666 52.1201C53.0085 40.5961 64.6675 30.1441 83.1795 23.6227C88.564 21.7021 96.4405 19.5581 104.05 19.4241C114.997 19.3347 125.632 22.7294 124.92 33.2707C124.52 41.3554 112.905 52.7007 106.809 60.8747C104.183 64.4481 103.738 66.7707 108.233 66.5474C124.475 65.4754 139.16 59.8474 152.822 53.9961C143.566 60.2941 95.8175 84.0121 95.6395 67.8427C95.684 65.7881 96.6185 63.5994 98.176 61.2767C99.689 58.9541 101.78 56.5421 103.961 54.0854C107.209 50.3781 115.308 41.4447 118.023 36.0847C122.606 26.0794 112.371 25.5881 103.516 22.4614L99.7335 24.6054L102.047 26.7941C89.1425 28.9381 82.779 31.0821 66.8925 36.5761L68.717 41.2214L63.3325 46.5814C63.199 46.4474 62.398 46.4027 60.707 45.3307V54.2641C53.6315 57.3907 47.4905 62.7954 52.252 67.4854C52.7415 67.8874 53.4535 68.2894 53.8985 68.3341C62.6205 73.2474 86.25 66.5474 86.2055 66.5474Z" fill="white"/>
<path d="M137.265 72.3512H138.377C138.6 72.3512 138.778 72.3065 138.911 72.2619C139.045 72.2172 139.134 72.1279 139.223 72.0385C139.312 71.9045 139.312 71.8152 139.312 71.6812C139.312 71.5025 139.223 71.3239 139.089 71.2345C138.956 71.1005 138.733 71.0559 138.466 71.0559H137.265V72.3512ZM136.775 74.5845V70.6092H138.555C138.911 70.6092 139.178 70.6539 139.356 70.6985C139.534 70.7879 139.668 70.8772 139.801 71.1005C139.935 71.2792 139.979 71.4579 139.979 71.6812C139.979 71.9492 139.89 72.2172 139.712 72.3959C139.534 72.5745 139.267 72.7085 138.867 72.7532C139 72.7979 139.134 72.8872 139.178 72.9319C139.312 73.0659 139.49 73.2445 139.623 73.4679L140.335 74.5399H139.668L139.134 73.7359C139 73.4679 138.867 73.2892 138.733 73.1552C138.644 73.0212 138.555 72.9319 138.466 72.8872C138.377 72.8425 138.333 72.7979 138.244 72.7979C138.199 72.7979 138.11 72.7979 137.932 72.7979H137.265V74.5845H136.775Z" fill="white"/>
<path d="M138.357 76.4253C140.448 76.4253 142.139 74.728 142.139 72.6286C142.139 70.5293 140.448 68.832 138.357 68.832C136.265 68.832 134.574 70.5293 134.574 72.6286C134.574 74.728 136.265 76.4253 138.357 76.4253ZM135.153 72.6286C135.153 70.842 136.577 69.4126 138.357 69.4126C140.137 69.4126 141.561 70.842 141.561 72.6286C141.561 74.3706 140.137 75.8446 138.357 75.8446C136.577 75.8446 135.153 74.4153 135.153 72.6286Z" fill="white"/>
</svg>
