<svg width="135" height="135" viewBox="0 0 135 135" fill="none" xmlns="http://www.w3.org/2000/svg">
<path d="M48.2192 50.2465H50.2462V48.2195V24.2648C50.2462 19.576 54.0472 15.7751 58.7359 15.7751H76.2638C80.9525 15.7751 84.7535 19.576 84.7535 24.2648V48.2195V50.2465H86.7805H110.735C115.424 50.2465 119.225 54.0475 119.225 58.7362V76.2641C119.225 80.9528 115.424 84.7538 110.735 84.7538H86.7805H84.7535V86.7808V110.736C84.7535 115.424 80.9525 119.225 76.2638 119.225H58.7359C54.0472 119.225 50.2462 115.424 50.2462 110.736V86.7808V84.7538H48.2192H24.2645C19.5757 84.7538 15.7748 80.9528 15.7748 76.2641V58.7362C15.7748 54.0475 19.5757 50.2465 24.2645 50.2465H48.2192Z" stroke="white" stroke-width="4.05405"/>
<path d="M36.9227 61.975H30.9541V73.7772H32.9436V63.543H36.9227V61.975Z" fill="white"/>
<path d="M45.7256 70.7423V65.0098C45.7256 63.1215 44.0564 61.8232 41.7466 61.8232C39.4367 61.8232 37.7844 63.1215 37.7844 65.0098V70.7423C37.7844 72.6307 39.4367 73.9289 41.7466 73.9289C44.0564 73.9289 45.7256 72.6307 45.7256 70.7423ZM43.7361 70.8435C43.7361 71.754 42.8762 72.3609 41.7466 72.3609C40.5832 72.3609 39.7571 71.7708 39.7571 70.8604V64.8918C39.7571 63.9982 40.5832 63.3913 41.7466 63.3913C42.8762 63.3913 43.7361 63.9982 43.7361 64.8918V70.8435Z" fill="white"/>
<path d="M51.4249 69.09C53.7348 69.09 55.3534 67.7918 55.3534 65.9034V65.1616C55.3534 63.2732 53.7348 61.975 51.4249 61.975H47.7156V73.7772H49.7052V69.09H51.4249ZM51.3912 63.543C52.5546 63.543 53.3638 64.15 53.3638 65.0436V66.0215C53.3638 66.9319 52.5546 67.5389 51.3912 67.5389H49.7052V63.543H51.3912Z" fill="white"/>
<path d="M60.6603 61.8232C58.3504 61.8232 56.6981 63.1215 56.6981 65.0098V65.6505H58.6708V64.8918C58.6708 63.9982 59.5306 63.3913 60.6434 63.3913C61.6719 63.3913 62.4306 63.9476 62.4306 64.7907V65.5494C62.4306 66.4092 61.5876 66.9825 60.458 66.9825H59.5306V68.5505H60.812C61.9417 68.5505 62.7847 69.1406 62.7847 70.0342V70.8941C62.7847 71.7877 61.8742 72.3609 60.694 72.3609C59.4969 72.3609 58.6708 71.7708 58.6708 70.8435V70.1017H56.6981V70.7423C56.6981 72.6307 58.3336 73.9289 60.694 73.9289C63.0376 73.9289 64.7742 72.6981 64.7742 70.9109V70.186C64.7742 69.0395 63.9649 68.1627 62.7004 67.6906C63.7457 67.2354 64.4201 66.4598 64.4201 65.4313V64.7401C64.4201 63.0035 62.8521 61.8232 60.6603 61.8232Z" fill="white"/>
<path d="M65.4473 76.1714H67.4368V73.7772H74.5687V76.1714H76.5582V72.2092H74.8891V61.975H67.7909V63.9814C67.7909 69.6127 67.3356 71.3662 66.813 72.2092H65.4473V76.1714ZM69.6455 63.9982V63.543H72.8995V72.2092H68.7856C69.4432 70.9952 69.6455 68.6348 69.6455 63.9982Z" fill="white"/>
<path d="M81.6385 69.09C83.9483 69.09 85.5669 67.7918 85.5669 65.9034V65.1616C85.5669 63.2732 83.9483 61.975 81.6385 61.975H77.9292V73.7772H79.9187V69.09H81.6385ZM81.6047 63.543C82.7681 63.543 83.5774 64.15 83.5774 65.0436V66.0215C83.5774 66.9319 82.7681 67.5389 81.6047 67.5389H79.9187V63.543H81.6047Z" fill="white"/>
<path d="M87.4063 73.7772L88.0469 71.5516H92.2789L92.9364 73.7772H94.9934L91.1998 61.975H89.1429L85.3493 73.7772H87.4063ZM90.1545 64.3186L91.8237 70.0005H88.5022L90.1545 64.3186Z" fill="white"/>
<path d="M96.189 73.7772H100.101C102.495 73.7772 104.046 72.5464 104.046 70.8435V70.2534C104.046 69.1238 103.338 68.1796 102.141 67.6906C103.119 67.2017 103.692 66.3755 103.692 65.3808V64.7907C103.692 63.1552 102.141 61.975 99.7634 61.975H96.189V73.7772ZM100.05 68.5505C101.315 68.5505 102.056 69.2081 102.056 70.1017V70.8266C102.056 71.6359 101.315 72.2092 100.05 72.2092H98.1785V68.5505H100.05ZM99.696 63.543C100.977 63.543 101.702 64.0994 101.702 64.8581V65.4988C101.702 66.3587 100.977 66.9825 99.696 66.9825H98.1785V63.543H99.696Z" fill="white"/>
</svg>
