<svg width="216" height="81" viewBox="0 0 216 81" fill="none" xmlns="http://www.w3.org/2000/svg">
<g clip-path="url(#clip0_150_451)">
<path d="M80.8117 57.3821V23.6197C80.8117 10.5986 70.2369 0 57.2481 0H23.5636C10.5748 0 0 10.5986 0 23.6197V57.3821C0 69.6452 9.21468 79.6376 21.1478 80.848L45.9185 60.7129H19.1842V51.0226L45.6176 29.3731H20.2417V20.1369H61.478V29.8272L35.0446 51.4767H61.478V61.167L37.1578 81H57.2499C70.2387 81 80.8135 70.4032 80.8135 57.3821H80.8117ZM100.9 14.9896H107.094C109.814 14.9896 111.778 16.6541 111.778 19.5308C111.778 22.2574 109.814 24.072 107.094 23.9219H102.866V29.8272H100.902V14.9896H100.9ZM106.791 22.1054C108.755 22.1054 109.964 21.1971 109.964 19.3807C109.964 17.5642 108.757 16.6541 106.793 16.6541H102.866V22.1054H106.793H106.791ZM118.272 18.9265C120.992 18.9265 123.257 21.1971 123.257 24.376C123.257 27.5566 120.991 29.9774 118.272 29.8272C115.552 29.8272 113.287 27.5566 113.287 24.376C113.136 21.3491 115.402 18.9265 118.272 18.9265ZM118.272 28.4649C120.084 28.4649 121.443 26.9505 121.443 24.528C121.443 22.1054 120.084 20.591 118.272 20.591H118.121C116.309 20.591 114.95 22.1054 114.95 24.528C114.95 26.9505 116.309 28.4649 118.121 28.4649H118.272ZM130.204 18.9265C132.621 18.9265 134.282 20.2889 134.433 22.5595H132.621C132.47 21.9534 132.318 21.3473 131.865 21.0452C131.414 20.5929 130.96 20.4409 130.355 20.4409H130.204C128.24 20.4409 127.033 22.2574 127.033 24.376C127.033 26.4964 128.09 28.4649 130.204 28.3129H130.355C130.96 28.3129 131.562 28.1609 131.866 27.7068C132.318 27.2545 132.621 26.7986 132.621 26.1925H134.433C134.131 28.4649 132.47 29.8272 130.204 29.8272C127.033 29.8272 125.219 27.4029 125.219 24.376C125.219 21.3491 127.033 18.9265 130.204 18.9265ZM141.382 18.9265C143.799 18.9265 145.46 20.2889 145.612 22.5595H143.799C143.648 21.9534 143.497 21.3473 143.043 21.0452C142.591 20.5929 142.138 20.4409 141.533 20.4409H141.382C139.418 20.4409 138.211 22.2574 138.211 24.376C138.211 26.4964 139.267 28.4649 141.382 28.3129H141.533C142.138 28.3129 142.74 28.1609 143.045 27.7068C143.497 27.2545 143.799 26.7986 143.799 26.1925H145.612C145.309 28.4649 143.648 29.8272 141.382 29.8272C138.211 29.8272 136.397 27.4029 136.397 24.376C136.397 21.3491 138.211 18.9265 141.382 18.9265ZM157.545 19.2287V29.8272H155.731V21.1971L150.596 29.8272H148.179V19.2287H149.991V27.8588L155.279 19.2287H157.545ZM170.233 19.2287V29.8272H168.419V21.1971L163.284 29.8272H160.867V19.2287H162.679V28.0108L167.967 19.2287H170.233ZM163.888 14.9896C164.039 16.0498 164.491 16.6541 165.398 16.6541C166.306 16.6541 166.909 16.0498 166.909 14.9896H168.419C168.419 16.9581 167.212 17.7143 165.248 17.7143C163.284 17.7143 162.076 16.8061 162.076 14.9896H163.888ZM177.785 18.9265C180.201 18.9265 181.863 20.2889 182.013 22.5595H180.201C180.049 21.9534 179.9 21.3473 179.446 21.0452C178.994 20.5929 178.54 20.4409 177.936 20.4409H177.785C175.821 20.4409 174.612 22.2574 174.612 24.376C174.612 26.4964 175.67 28.4649 177.785 28.3129H177.936C178.54 28.3129 179.143 28.1609 179.446 27.7068C179.9 27.2545 180.201 26.7986 180.201 26.1925H182.013C181.712 28.4649 180.049 29.8272 177.785 29.8272C174.612 29.8272 172.8 27.4029 172.8 24.376C172.8 21.3491 174.764 18.9265 177.785 18.9265ZM188.358 24.6799L186.394 26.4964V29.8254H184.582V19.2287H186.394V24.376L191.682 19.2287H193.797L189.567 23.3176L194.097 29.8272H191.833L188.358 24.6799ZM199.686 18.9265C202.406 18.9265 204.67 21.1971 204.67 24.376C204.67 27.5566 202.406 29.9774 199.686 29.8272C196.967 29.8272 194.701 27.5566 194.701 24.376C194.701 21.3491 196.967 18.9265 199.686 18.9265ZM199.837 28.4649C201.649 28.4649 203.009 26.9505 203.009 24.528C203.009 22.1054 201.649 20.591 199.837 20.591H199.686C197.873 20.591 196.515 22.1054 196.515 24.528C196.515 26.9505 197.873 28.4649 199.686 28.4649H199.837ZM211.619 18.9265C214.339 18.9265 216 20.895 216 23.6197V24.6799H208.598C208.598 27.1025 210.26 28.4649 211.619 28.4649H211.77C212.979 28.4649 213.885 27.8588 214.188 26.6466H216C215.546 28.767 213.885 29.9774 211.619 29.9774C208.9 29.9774 206.634 28.0108 206.785 24.376C206.634 20.895 209.052 18.9265 211.619 18.9265ZM214.188 23.3176C214.188 21.4993 212.979 20.591 211.619 20.591H211.469C210.26 20.591 208.9 21.3491 208.598 23.3176H214.188ZM104.979 37.2452C107.699 37.2452 109.964 39.5158 109.964 42.6964C109.964 45.8753 107.697 48.2979 104.979 48.1459C102.26 48.1459 99.9941 45.8753 99.9941 42.6964C99.8446 39.5158 102.26 37.095 104.979 37.2452ZM105.13 46.6315C106.943 46.6315 108.301 45.119 108.301 42.6964C108.301 40.272 106.943 38.7595 105.13 38.7595H104.979C103.167 38.7595 101.808 40.2738 101.808 42.6964C101.808 45.119 103.167 46.6315 104.979 46.6315H105.13ZM112.533 38.0032C112.684 36.943 112.985 36.1849 113.439 35.5788C114.194 34.6706 115.402 34.2183 117.063 34.2183H119.481C120.236 34.2183 120.538 34.0663 120.538 33.4602V33.1581H122.199V33.7624C122.199 35.2767 121.594 35.8828 119.782 35.8828H117.063C114.648 35.8828 113.893 37.095 113.74 39.9717C114.496 38.9115 116.006 38.0032 117.517 38.0032C120.084 38.0032 122.199 39.9699 122.199 42.9986C122.199 46.0272 120.084 48.4498 117.215 48.4498C113.891 48.4498 112.23 46.0254 112.23 42.0903C112.23 40.2738 112.381 38.9115 112.533 38.0014V38.0032ZM117.366 46.7835C119.178 46.7835 120.387 45.119 120.387 42.8466C120.387 40.728 119.178 39.2136 117.366 39.2136H117.215C115.402 39.2136 114.044 40.728 114.044 42.6964C114.044 44.967 115.402 46.7853 117.366 46.7853V46.7835ZM141.079 46.4814V50.8724H139.418V47.9957H124.767V37.3971H126.579V46.4796H131.111V37.3971H132.924V46.4796H137.455V37.3971H139.267V46.4796H141.079V46.4814ZM147.273 37.2452C149.993 37.2452 151.654 39.2136 151.654 41.9384V42.9986H144.252C144.252 45.4212 145.913 46.7835 147.273 46.7835H147.424C148.631 46.7835 149.539 46.1792 149.84 44.967H151.654C151.2 47.0875 149.539 48.2979 147.273 48.2979C144.552 48.2979 142.288 46.3294 142.439 42.6964C142.439 39.0616 144.857 37.095 147.273 37.2452ZM149.993 41.4842C149.993 39.6677 148.784 38.7595 147.424 38.7595H147.273C146.066 38.7595 144.706 39.5158 144.403 41.4842H149.991H149.993ZM158.754 37.2452C161.17 37.2452 162.83 38.6075 162.982 40.8781H161.17C161.018 40.2738 160.867 39.6677 160.413 39.3656C159.963 38.9115 159.509 38.7595 158.903 38.7595H158.752C156.788 38.7595 155.581 40.576 155.581 42.6964C155.581 44.8151 156.639 46.7853 158.752 46.6315H158.903C159.509 46.6315 160.112 46.4814 160.415 46.0272C160.867 45.5731 161.17 45.119 161.17 44.5129H162.982C162.679 46.7835 161.018 48.1459 158.754 48.1459C155.581 48.1459 153.769 45.7233 153.769 42.6964C153.769 39.5158 155.581 37.095 158.754 37.2452ZM172.951 38.9115H169.476V47.9939H167.664V38.9115H164.191V37.3971H172.951V38.9115ZM174.915 37.3971H179.9C182.015 37.3971 183.222 38.6093 183.222 40.1219C183.222 41.3341 182.467 42.2423 181.258 42.6964C182.316 42.8466 183.524 43.7566 183.524 45.119C183.524 46.7835 182.015 48.1459 180.051 48.1459H174.915V37.3971ZM179.748 41.9384C180.806 41.9384 181.561 41.3341 181.561 40.2738C181.561 39.3656 180.806 38.7595 179.597 38.7595H176.879V41.9384H179.748ZM179.597 46.6315C180.957 46.6315 181.712 46.0273 181.712 44.967C181.712 44.0588 180.957 43.4527 179.748 43.4527H176.727V46.7835H179.597V46.6315ZM190.473 37.2452C193.191 37.2452 195.457 39.5158 195.457 42.6964C195.457 45.8753 193.191 48.2979 190.473 48.1459C187.754 48.1459 185.488 45.8753 185.488 42.6964C185.488 39.5158 187.754 37.095 190.473 37.2452ZM190.624 46.6315C192.436 46.6315 193.797 45.119 193.797 42.6964C193.797 40.272 192.436 38.7595 190.624 38.7595H190.473C188.66 38.7595 187.3 40.2738 187.3 42.6964C187.3 45.119 188.66 46.6315 190.473 46.6315H190.624ZM110.87 59.8047C111.324 60.409 111.626 61.0169 111.626 61.9233C111.626 64.6498 109.36 66.4645 105.885 66.4645C102.109 66.4645 99.9941 64.6498 99.8446 61.319H102.714C103.015 62.9835 104.073 63.8918 106.036 63.8918C107.849 63.8918 108.757 63.1355 108.757 61.9233C108.757 60.7111 107.849 60.1068 106.188 60.1068H104.224V57.5341H106.036C107.697 57.5341 108.604 56.776 108.604 55.5656C108.604 54.5054 107.697 53.7473 106.036 53.7473C105.13 53.7473 104.375 54.0513 103.772 54.5054C103.318 54.9595 103.015 55.5656 102.864 56.4738H99.9941C99.9941 55.7158 100.297 54.9595 100.599 54.0495C101.052 53.295 101.657 52.5369 102.563 52.0828C103.594 51.568 104.733 51.3087 105.885 51.3265C109.511 51.3265 111.475 52.991 111.475 55.5656C111.475 57.0799 110.567 58.2903 108.906 58.7445C109.663 58.8964 110.266 59.1986 110.87 59.8047ZM114.042 55.5656H116.763V59.6545H120.839V55.5656H123.56V66.1642H120.839V61.7731H116.761V66.1624H114.04V55.5674L114.042 55.5656ZM125.824 60.8649C125.824 57.2301 127.939 55.2617 130.357 55.4136C131.866 55.4136 133.075 56.1699 133.527 57.0781V55.5674H136.248V66.166H133.525V64.6516C132.922 65.5599 131.864 66.3161 130.355 66.3161C128.24 66.4681 125.822 64.4997 125.822 60.8667L125.824 60.8649ZM131.111 64.1939C132.47 64.1939 133.527 62.9835 133.527 60.8649C133.527 58.7444 132.47 57.5341 131.111 57.5341H130.96C129.6 57.5341 128.543 58.8964 128.543 60.8631C128.543 62.6814 129.6 64.1957 130.96 64.1957H131.111V64.1939ZM139.116 55.5656H141.987V59.6545H146.064V55.5656H148.784V66.1642H146.064V61.7731H141.987V66.1624H139.116V55.5674V55.5656ZM161.924 55.5656V66.1642H159.204V58.5925L155.277 66.1624H151.654V55.5674H154.372V63.1373L158.148 55.5674H161.924V55.5656ZM164.191 60.8649C164.191 57.6842 166.154 55.2617 169.175 55.4136C172.197 55.4136 174.009 57.6842 174.009 60.8649V61.9233H166.909C167.06 63.2875 168.118 64.3477 169.327 64.3477H169.476C170.534 64.3477 171.139 63.7416 171.29 62.9835H174.009C173.555 65.104 171.743 66.6165 169.175 66.6165C166.455 66.4663 164.039 64.3459 164.191 60.8631V60.8649ZM171.29 59.6527C171.29 58.4405 170.233 57.6842 169.175 57.6842H169.024C167.815 57.6842 166.909 58.4423 166.909 59.6527H171.29Z" fill="white"/>
</g>
<defs>
<clipPath id="clip0_150_451">
<rect width="216" height="81" fill="white"/>
</clipPath>
</defs>
</svg>
