<svg width="152" height="135" viewBox="0 0 152 135" fill="none" xmlns="http://www.w3.org/2000/svg">
    <path fill-rule="evenodd" clip-rule="evenodd" d="M72.6125 0.0303988C56.632 0.320756 39.3993 2.86369 22.3565 7.44655C20.926 7.83119 20.701 7.91187 20.5044 8.11014L20.2807 8.33579L20.2621 30.2045L20.2436 52.0734H17.2297H14.2158V54.1977V56.322L7.11321 56.3408L0.010677 56.3595L4.0967 63.7594C6.34404 67.8293 8.25224 71.2912 8.33715 71.4523L8.49157 71.7454L4.24575 79.4381L0 87.1311L10.263 87.1503L20.526 87.1686L20.565 87.4798C21.393 94.0936 22.8679 99.1783 25.5427 104.642C28.9505 111.603 33.7028 117.559 39.7462 122.445C51.443 131.9 66.7066 136.273 82.4542 134.678C87.8042 134.136 93.187 132.814 98.1066 130.834C107.598 127.013 115.684 120.79 121.622 112.734C126.884 105.596 130.302 96.9877 131.346 88.242L131.474 87.1677H141.737C147.382 87.1677 152 87.156 152 87.1414C152 87.1187 144.326 73.1931 143.717 72.1099L143.51 71.7415L147.752 64.0504L151.994 56.3595L144.897 56.3227L137.8 56.2861L137.781 54.1796L137.762 52.0734H134.749H131.735V30.2581C131.735 9.0445 131.731 8.43668 131.599 8.21724C131.523 8.09314 131.369 7.95363 131.254 7.90718C130.694 7.68026 124.508 6.09866 121.313 5.36547C104.447 1.49559 88.4463 -0.257321 72.6125 0.0303988ZM83.3621 1.95651C96.4323 2.55649 108.757 4.2916 121.894 7.38084C124.177 7.91759 128.949 9.12868 129.867 9.40447C129.991 9.44153 129.996 10.3768 129.976 30.74L129.956 52.0368H128.394H126.833L126.796 32.6911C126.763 14.7686 126.751 13.3316 126.639 13.1583C126.478 12.9107 126.416 12.8886 124.182 12.2886C98.026 5.26283 79.1363 3.52156 57.868 6.17579C49.2328 7.25348 39.6688 9.16634 29.5046 11.8486L29.4095 11.8738C25.9856 12.7773 25.6859 12.8563 25.4879 13.0444C25.4688 13.0624 25.4508 13.0814 25.431 13.1023L25.4255 13.1081L25.2198 13.3248L25.2011 32.6991L25.1825 52.0734H23.6213H22.0602V30.7583V9.44337L22.2962 9.3671C22.7438 9.22261 25.6606 8.46466 27.6891 7.9658C38.17 5.38847 48.6197 3.59688 58.6308 2.66103C63.2449 2.22972 66.3427 2.04311 71.9953 1.85599C73.4158 1.80895 81.7546 1.88266 83.3621 1.95651ZM77.5877 29.4339V52.0368H76.0263H74.4646L74.4464 29.5071C74.4362 17.1159 74.4434 6.93573 74.4623 6.88452C74.4899 6.81242 74.8459 6.79592 76.0428 6.81125L77.5877 6.83102V29.4339ZM72.6486 29.4705V52.0368L49.824 52.0551L26.9991 52.0736V33.2491V14.4246L27.3805 14.3149C28.2045 14.0779 30.6386 13.4413 32.9914 12.8477C44.0256 10.0636 54.0383 8.27175 63.3156 7.42084C66.5631 7.12299 70.5817 6.87887 71.9589 6.8958L72.6486 6.90429V29.4705ZM84.2336 7.05428C93.8828 7.63887 103.664 9.1681 115.139 11.8862C118.579 12.7011 124.649 14.2745 124.923 14.4222C125.048 14.4898 125.053 15.2589 125.035 33.2647L125.017 52.0368H102.21H79.4036L79.3855 29.4412L79.3673 6.8456L80.9108 6.89601C81.7599 6.92378 83.2552 6.99499 84.2336 7.05428ZM66.3777 16.6902C66.2842 16.728 66.0226 16.9264 65.7967 17.1311C64.7953 18.0376 62.6666 19.2429 60.9013 19.9026C59.2957 20.5028 57.4562 20.954 55.4457 21.2413C54.3994 21.3908 54.018 21.3999 47.6612 21.4278C47.1172 21.4303 46.6154 21.4328 46.1518 21.4351C42.1118 21.4555 40.9628 21.4613 39.862 21.232C39.4247 21.1409 38.9947 21.0126 38.3941 20.8333C38.2204 20.7815 38.0327 20.7254 37.8264 20.6648C34.8718 19.7968 34.8432 19.7903 34.3743 19.8895C33.5476 20.0645 32.9702 20.4859 32.6095 21.1776C32.4304 21.5212 32.4112 21.6315 32.4108 22.327C32.4103 23.2591 32.542 23.6664 33.0061 24.1671C33.3962 24.5876 33.9223 24.8274 34.5563 24.8741L34.5611 24.8743C34.6576 24.8814 34.7357 24.8871 34.8138 24.8862C35.1461 24.8826 35.4773 24.759 37.2181 24.1089L37.2405 24.1007C37.7796 23.8993 38.327 23.712 38.4569 23.6845L38.693 23.6342L38.6971 33.8791C38.7004 41.6166 38.7225 44.186 38.7879 44.3777C38.8945 44.6898 39.2816 44.9664 39.6119 44.9664C39.7597 44.9664 41.3802 44.3512 43.7318 43.402L47.6082 41.8376L51.4847 43.402C53.6166 44.2624 55.4528 44.9664 55.565 44.9664C55.8591 44.9664 56.1822 44.7754 56.3457 44.5049C56.4846 44.2752 56.4876 44.0567 56.4878 33.95L56.488 23.6293L56.7605 23.6788C58.9021 24.0652 61.5229 24.9604 63.2428 25.8925C64.1083 26.3616 65.1463 27.0565 65.7734 27.5869C66.395 28.1125 66.6679 28.1983 67.0972 28.0031C67.3178 27.9027 67.468 27.7395 67.7542 27.2895C69.6968 24.2346 69.6812 20.4579 67.713 17.3705C67.2775 16.6876 66.8823 16.4862 66.3777 16.6902ZM66.8024 19.6165C67.5856 21.5312 67.5608 23.4248 66.7275 25.2979L66.5145 25.7775L66.1315 25.4928C64.7283 24.4496 62.7272 23.4619 60.5377 22.7313L59.3942 22.3497L60.3562 22.0368C62.4027 21.371 64.2366 20.5095 65.6398 19.5541C66.0993 19.2414 66.4982 19.004 66.5263 19.0265C66.5546 19.0491 66.6787 19.3146 66.8024 19.6165ZM89.4994 19.2043C89.3797 19.2586 89.2162 19.3769 89.1363 19.4671C89.0006 19.6211 88.9889 19.7632 88.9548 21.7667L88.9184 23.9021L87.6437 23.9389C86.5716 23.9696 86.3372 23.9968 86.1672 24.1094C86.1476 24.1224 86.1287 24.1339 86.1105 24.1446C86.085 24.1602 86.061 24.1746 86.0394 24.1911C85.7582 24.4037 85.7582 24.994 85.7589 33.1162C85.7589 33.5633 85.7589 34.0333 85.7589 34.5273C85.7589 35.0307 85.7589 35.5087 85.7589 35.9629C85.7582 43.9965 85.7582 44.5127 86.0138 44.7617C86.0292 44.7761 86.0444 44.7898 86.061 44.804C86.0806 44.82 86.1011 44.8369 86.1227 44.8566C86.2812 45.0012 86.4148 45.0035 97.0794 45.0397L107.876 45.0763L107.912 46.4391C107.94 47.4694 107.974 47.8326 108.052 47.9275C108.245 48.1621 108.572 48.2817 108.914 48.2431C109.199 48.2106 109.301 48.1419 109.793 47.6481L110.349 47.0901L110.71 47.4653C111.287 48.0648 111.594 48.2639 111.936 48.2609C112.298 48.2577 112.524 48.1394 112.71 47.8557C112.835 47.6635 112.85 47.5022 112.851 46.3402V45.0397H115.691H115.724C118.218 45.0397 118.685 45.0397 118.91 44.8044C118.962 44.7504 119.001 44.6839 119.049 44.6019L119.052 44.5971C119.16 44.412 119.17 43.5302 119.169 34.5147C119.168 26.7586 119.148 24.5961 119.077 24.454C119.028 24.3545 118.876 24.1977 118.741 24.106C118.509 23.9485 118.425 23.9389 117.275 23.9389H116.055L116.033 21.8691C116.008 19.5529 115.988 19.4504 115.506 19.2198C115.272 19.1076 114.797 19.0988 110.074 19.1194C104.948 19.1418 104.893 19.1436 104.421 19.3047C103.866 19.494 103.176 19.9238 102.767 20.3362L102.48 20.6258L102.083 20.2461C101.65 19.8334 101.058 19.4863 100.431 19.277C100.063 19.1541 99.6346 19.1424 94.8743 19.1247C90.6747 19.1091 89.6775 19.1239 89.4994 19.2043ZM100.086 21.1075C100.531 21.2807 101.103 21.8026 101.302 22.2167C101.389 22.3961 101.502 22.8145 101.554 23.1466C101.638 23.6687 101.681 23.7776 101.877 23.9543C102.062 24.1211 102.172 24.1586 102.473 24.1586C102.794 24.1586 102.873 24.127 103.083 23.9154C103.32 23.6765 103.35 23.5875 103.445 22.8316C103.53 22.1523 104.214 21.3406 104.922 21.0763C105.133 20.9974 106.119 20.9719 109.673 20.9532L114.158 20.9296V30.4535V39.9772L109.528 40.0005C104.97 40.0234 104.89 40.0264 104.421 40.1861C103.857 40.3778 103.165 40.8119 102.772 41.2217L102.489 41.515L102.072 41.1233C101.618 40.6966 101.055 40.3661 100.431 40.1584C100.066 40.0369 99.6383 40.0236 95.401 40.0014L90.7705 39.9772V30.4535V20.9296L95.2556 20.9516C99.3951 20.9719 99.7675 20.9839 100.086 21.1075ZM35.0454 21.9506C35.2739 22.0659 35.5857 22.2011 35.7382 22.2509C35.8907 22.3008 35.9984 22.3586 35.9777 22.3795C35.9236 22.4341 34.7635 22.918 34.58 22.9626C34.2244 23.0488 34.051 22.3049 34.3405 21.9339C34.4232 21.8277 34.5222 21.7408 34.5604 21.7408C34.5984 21.7408 34.8167 21.8352 35.0454 21.9506ZM53.946 23.4037C54.0206 23.4831 52.7677 24.576 52.1623 24.9597C49.2418 26.8105 45.2965 26.6737 42.5377 24.6254C41.9948 24.2224 41.3283 23.6014 41.2206 23.3982C41.1469 23.2596 41.2438 23.2582 47.5276 23.3113C51.0377 23.3408 53.9259 23.3825 53.946 23.4037ZM41.5983 26.2447C42.6834 27.0384 44.1357 27.6535 45.5931 27.937C46.5364 28.1203 48.6137 28.1237 49.5879 27.9434C51.2855 27.6295 52.9462 26.851 54.2465 25.7601C54.4319 25.6047 54.6042 25.4775 54.6297 25.4775C54.6551 25.4775 54.6668 26.0271 54.6557 26.6991L54.6359 27.9207L47.8888 30.7617C44.1776 32.3243 41.0154 33.6534 40.8615 33.7157L40.5815 33.8287V29.6437V25.4587L40.8175 25.6525C40.9474 25.7591 41.2989 26.0255 41.5983 26.2447ZM94.1387 25.7644C93.8197 25.9605 93.676 26.1964 93.676 26.5232C93.676 26.8886 93.8437 27.2057 94.1094 27.3446C94.427 27.51 99.4626 27.51 99.7799 27.3446C100.205 27.1226 100.357 26.4149 100.061 26.0353C99.7436 25.6283 99.7118 25.6239 96.9299 25.6244C94.5343 25.6246 94.3515 25.6338 94.1387 25.7644ZM88.9548 33.5978L88.9912 41.3883L89.2286 41.6022L89.4654 41.8159H94.4247C99.846 41.8159 99.9391 41.8223 100.537 42.2408C100.82 42.4381 101.302 43.0062 101.302 43.1407C101.302 43.1822 98.628 43.2016 94.4567 43.1902L87.611 43.1714L87.593 34.5625C87.5819 29.8277 87.59 25.9111 87.6096 25.8591C87.6358 25.7898 87.8136 25.7704 88.2823 25.7859L88.9184 25.8072L88.9548 33.5978ZM117.354 34.4893V43.208H115.1H112.846L112.866 42.5303L112.887 41.8525L114.208 41.8159C115.48 41.7807 115.534 41.7731 115.715 41.6015C115.817 41.5038 115.934 41.3061 115.974 41.162C116.019 40.9965 116.046 38.1165 116.047 33.3354V25.7706H116.701H117.354V34.4893ZM94.1444 28.9614C93.5401 29.2623 93.5182 30.2599 94.1094 30.5683C94.427 30.7338 99.4626 30.7338 99.7799 30.5683C100.376 30.2569 100.347 29.2529 99.7327 28.9589C99.3898 28.7946 94.4749 28.7969 94.1444 28.9614ZM54.6569 30.6466L54.6359 31.2733L48.0265 34.0539C44.3911 35.5833 41.2288 36.9159 40.9992 37.0152L40.5815 37.1959V36.5486V35.9011L47.5362 32.9663C51.3613 31.3523 54.5328 30.029 54.5844 30.0258C54.6555 30.0215 54.6728 30.1709 54.6569 30.6466ZM94.0942 32.1861C93.6992 32.4027 93.5516 33.045 93.8001 33.4695C94.047 33.8907 94.1371 33.9031 96.9806 33.9031C99.2505 33.9031 99.5985 33.8882 99.7742 33.7832C100.354 33.4379 100.357 32.4837 99.7799 32.1826C99.4663 32.0193 94.3936 32.0225 94.0942 32.1861ZM54.6723 38.0062C54.6723 41.0432 54.6475 42.6218 54.5993 42.6218C54.5595 42.6218 53.0153 42.012 51.1683 41.2665C49.3212 40.5211 47.7199 39.911 47.6099 39.911C47.4998 39.911 45.9305 40.5087 44.1226 41.2393C42.315 41.9699 40.7779 42.5838 40.7072 42.6037C40.5868 42.6376 40.5801 42.5355 40.5983 40.9389L40.6179 39.2381L47.5543 36.3159C51.3693 34.709 54.5316 33.3931 54.5814 33.3921C54.6532 33.3905 54.6723 34.3612 54.6723 38.0062ZM107.876 42.512V43.1714L105.751 43.1908C104.484 43.2023 103.627 43.1828 103.627 43.1423C103.627 42.9712 104.219 42.3454 104.556 42.1605C105.079 41.8743 105.386 41.8287 106.713 41.8415L107.876 41.8525V42.512ZM111.018 43.4462C111.029 44.3226 111.025 45.0397 111.009 45.0397C110.992 45.0397 110.886 44.9905 110.771 44.9303C110.505 44.79 110.213 44.7905 109.942 44.9317L109.728 45.0433V43.4268V41.8102L110.363 41.8315L110.999 41.8525L111.018 43.4462ZM135.984 67.4959V81.0499H76.0263H16.068L16.0496 67.4776L16.0313 53.9048L76.0081 53.9231L135.984 53.9417V67.4959ZM14.2158 70.5V82.8449H17.2323C19.5823 82.8449 20.2551 82.8655 20.2768 82.9367C20.2922 82.9873 20.3233 83.5476 20.346 84.1821L20.3871 85.336H11.7451C6.99191 85.336 3.10301 85.3221 3.10301 85.3054C3.10301 85.2884 4.7748 82.2464 6.81803 78.5464C8.86135 74.8465 10.5337 71.7832 10.5344 71.7399C10.5352 71.6964 8.90057 68.6962 6.90193 65.0725C4.90329 61.449 3.22977 58.4099 3.183 58.3193L3.09792 58.1546H8.65688H14.2158V70.5ZM148.857 58.2479C148.837 58.2994 147.211 61.2587 145.245 64.8238C143.277 68.3889 141.619 71.4093 141.558 71.5356L141.449 71.7655L145.122 78.4227C147.143 82.0846 148.818 85.1376 148.844 85.2086C148.891 85.331 148.463 85.336 140.264 85.3184L131.635 85.2994L131.656 84.5668C131.668 84.1638 131.699 83.6201 131.725 83.3579L131.772 82.8815L134.768 82.8625L137.764 82.8436V70.548C137.764 63.7852 137.786 58.2301 137.813 58.2033C137.84 58.1765 140.343 58.1546 143.377 58.1546C147.821 58.1546 148.886 58.1726 148.857 58.2479ZM25.2136 83.0099C25.232 83.1007 25.2649 83.676 25.287 84.2876C25.4248 88.0996 26.2608 92.6526 27.5558 96.6449C32.2353 111.071 43.6148 122.279 58.6153 127.236C70.7719 131.253 84.6172 130.899 96.2906 126.273C114.151 119.196 125.671 103.367 126.725 84.4569C126.769 83.6714 126.818 82.9863 126.835 82.9351C126.859 82.8632 127.205 82.8465 128.375 82.8619L129.883 82.8815L129.865 83.8707C129.813 86.6263 129.232 90.7681 128.467 93.841C126.511 101.689 122.911 108.639 117.616 114.789C116.663 115.896 114.429 118.182 113.287 119.218C104.976 126.76 94.3464 131.495 82.781 132.809C80.3085 133.089 79.2394 133.143 76.0988 133.141C72.9814 133.139 72.0733 133.094 69.5257 132.809C54.6746 131.147 41.4559 123.888 32.6164 112.539C26.8204 105.097 23.247 96.1042 22.3167 86.6183C22.1875 85.3017 22.0575 82.9843 22.1082 82.9001C22.1265 82.8699 22.8252 82.8449 23.6609 82.8449C25.1786 82.8449 25.1806 82.8458 25.2136 83.0099ZM72.6668 105.432C72.6836 125.366 72.6726 127.987 72.577 128.024C72.4156 128.087 70.0994 127.856 68.3641 127.606C62.7 126.788 57.5509 125.182 52.5296 122.669C50.4122 121.61 49.1925 120.903 47.3363 119.664C35.9517 112.061 28.7929 100.335 27.2964 86.838C27.1299 85.336 26.9777 83.0129 27.0392 82.9124C27.0643 82.8715 36.0818 82.8522 49.8647 82.8632L72.6486 82.8815L72.6668 105.432ZM77.5877 105.521V128.161L76.2441 128.183C75.5053 128.194 74.7944 128.185 74.6642 128.161L74.4282 128.117V105.531C74.4282 93.1074 74.4507 82.9204 74.4784 82.8928C74.506 82.8648 75.2163 82.8516 76.058 82.8625L77.5877 82.8815V105.521ZM124.93 83.8707C124.923 84.415 124.88 85.2724 124.836 85.7758C123.639 99.3058 116.943 111.04 105.917 118.929C100.179 123.033 93.267 125.925 85.9572 127.278C83.9337 127.653 80.7196 128.051 79.7173 128.051H79.3673V105.497C79.3673 93.0921 79.3891 82.9211 79.4159 82.8941C79.4428 82.8669 89.6977 82.8532 102.204 82.8632L124.944 82.8815L124.93 83.8707ZM101.148 89.1693C100.268 89.502 99.8497 90.1086 99.8497 91.0545C99.8497 91.5785 100.116 92.1339 100.532 92.4782L100.839 92.7308L100.403 96.0134L99.9674 99.2957L99.4697 99.4195C98.8124 99.5822 98.3005 99.8261 97.8348 100.2C97.4834 100.482 96.9212 101.122 96.8579 101.313C96.8325 101.393 96.3473 101.269 94.6564 100.754L94.0753 100.578L94.0682 100.154C94.0369 98.4171 91.9204 97.5776 90.6929 98.8157C90.1044 99.4092 89.9462 100.394 90.3202 101.132C90.5003 101.489 90.9798 101.941 91.3414 102.095C91.7396 102.264 92.4803 102.242 92.9146 102.048L93.2764 101.886L94.8017 102.336L96.327 102.787V103.472C96.327 104.098 96.3139 104.163 96.1817 104.196C94.9042 104.514 88.5407 105.797 88.28 105.789C87.6757 105.77 87.3569 106.03 87.3569 106.545C87.3569 106.899 87.5232 107.133 87.877 107.276C88.169 107.394 88.1922 107.39 92.5348 106.473C96.497 105.637 96.9051 105.563 96.9677 105.675C97.0046 105.742 97.1462 105.921 97.2814 106.072L97.5262 106.346L95.9544 109.194C95.0893 110.76 94.331 112.084 94.2692 112.134C94.2075 112.184 94.0564 112.226 93.9344 112.226C93.6265 112.227 93.0309 112.521 92.7375 112.817C92.144 113.416 91.9618 114.495 92.3241 115.266C92.6933 116.049 93.3688 116.472 94.257 116.472C94.8998 116.472 95.3102 116.314 95.7365 115.903C96.1702 115.485 96.3625 115.008 96.3611 114.35C96.3604 113.759 96.2363 113.385 95.8913 112.928L95.7024 112.679L97.0948 110.163C97.8611 108.779 98.5487 107.544 98.6229 107.419L98.7588 107.192L99.1408 107.323C99.3507 107.394 99.7081 107.474 99.934 107.501C99.9745 107.506 100.012 107.509 100.045 107.512C100.138 107.52 100.205 107.526 100.255 107.557C100.38 107.636 100.408 107.873 100.501 108.701C100.515 108.821 100.53 108.954 100.547 109.099C100.647 109.961 100.656 110.236 100.588 110.423C100.443 110.829 100.482 111.047 100.75 111.316C100.933 111.501 101.06 111.566 101.241 111.566C101.545 111.566 101.926 111.337 101.997 111.113C102.026 111.02 102.091 110.911 102.141 110.87C102.212 110.812 102.187 110.432 102.015 109.04C101.897 108.074 101.828 107.274 101.864 107.262C102.149 107.166 102.926 106.615 103.274 106.262L103.699 105.83L104.553 106.355L104.559 106.359C107.57 108.207 107.894 108.407 108.025 108.695C108.04 108.73 108.053 108.766 108.067 108.806V108.808C108.24 109.294 108.378 109.483 108.725 109.716C108.993 109.894 109.095 109.917 109.619 109.917C110.145 109.917 110.245 109.894 110.516 109.713C111.536 109.034 111.449 107.464 110.363 106.918C109.869 106.669 109.37 106.666 108.893 106.909L108.543 107.088L106.42 105.771L104.297 104.454L104.368 104.145C104.436 103.848 104.405 102.746 104.32 102.444C104.285 102.319 104.538 102.125 106.018 101.135C107.435 100.189 107.78 99.9256 107.879 99.7154C108.132 99.1783 107.794 98.5534 107.209 98.4743C106.819 98.4216 106.5 98.5967 106.312 98.9667C106.19 99.2076 105.943 99.4085 104.903 100.107L103.642 100.955L103.326 100.607C102.95 100.193 102.315 99.7623 101.811 99.5799C101.611 99.5074 101.448 99.4055 101.448 99.3543C101.448 99.2223 102.24 93.2578 102.29 93.0093C102.319 92.8708 102.416 92.7631 102.599 92.6686C103.935 91.9808 103.928 89.9709 102.586 89.2808C102.214 89.0888 101.507 89.0346 101.148 89.1693ZM39.9507 89.4318C39.8233 89.5123 39.6847 89.6434 39.6425 89.7226C39.6004 89.8018 38.6177 92.424 37.4588 95.5496C36.1408 99.1037 35.352 101.329 35.352 101.494C35.352 101.835 35.5226 102.16 35.7709 102.289C36.0189 102.418 38.4687 103.32 39.2015 103.552C39.8185 103.747 40.002 103.762 40.3293 103.642C40.5317 103.569 40.5971 103.581 40.8682 103.744L41.177 103.93L41.1895 104.616C41.2035 105.394 41.329 105.721 41.7912 106.187C42.0902 106.489 42.7 106.802 42.9914 106.803C43.1546 106.803 43.2138 106.865 43.3626 107.188C43.7336 107.995 44.3884 108.418 45.3494 108.473C45.875 108.502 45.9512 108.525 46.0307 108.675C46.2854 109.155 47.2559 109.588 48.079 109.588C48.6036 109.588 48.6096 109.59 48.8979 109.892C49.0578 110.059 49.3664 110.279 49.584 110.38C50.0716 110.607 50.8666 110.674 51.2949 110.525L51.5853 110.424L52.0476 110.846C52.6086 111.359 53.1028 111.566 53.7663 111.566C54.5636 111.566 55.4008 111.121 55.7163 110.53L55.8478 110.284L56.4632 110.31C57.0327 110.334 57.1131 110.319 57.5398 110.107C57.9675 109.894 58.2524 109.642 58.5218 109.237C58.6218 109.087 58.6545 109.08 58.9212 109.156C59.081 109.201 59.4242 109.223 59.6839 109.204C60.4126 109.151 61.0349 108.771 61.4359 108.133L61.6381 107.811L62.1348 107.796C63.0459 107.768 63.7976 107.269 64.1753 106.444C64.5099 105.712 64.4185 104.729 63.9554 104.073C63.8455 103.917 63.8276 103.84 63.8872 103.78C63.9469 103.719 64.0217 103.75 64.1705 103.894C64.5208 104.232 64.755 104.271 65.3759 104.095C65.8796 103.953 68.0983 103.155 68.6939 102.903C69.0561 102.749 69.344 102.382 69.344 102.073C69.344 101.818 65.2992 90.815 65.0772 90.4649C64.8978 90.1827 64.7578 90.1036 64.4346 90.1013C64.1795 90.0992 63.8803 90.2537 62.3108 91.1975L60.4838 92.2965H59.3542H58.2245L57.0113 91.719C55.3526 90.9294 54.8563 90.7578 54.2299 90.7578C53.6489 90.7578 53.1164 90.9175 52.2769 91.3433C50.979 92.0018 48.0133 92.2473 45.4842 91.906C44.8676 91.8231 44.787 91.7908 44.0678 91.336C43.6484 91.0708 42.7369 90.5138 42.042 90.0999C40.6395 89.2625 40.3588 89.173 39.9507 89.4318ZM41.9308 92.3009C42.4711 92.6656 42.9303 93.0086 42.9513 93.0635C43.0505 93.3244 42.0068 96.7035 41.3449 98.2633C40.7733 99.6115 39.769 101.511 39.5585 101.642C39.4855 101.688 37.6359 101.056 37.509 100.943C37.4565 100.896 40.8495 91.6371 40.9193 91.6371C40.9354 91.6371 41.3905 91.9359 41.9308 92.3009ZM64.0431 92.8642C65.0832 95.658 67.1605 101.295 67.1785 101.371C67.1941 101.439 66.8881 101.583 66.2064 101.826L65.2115 102.182L64.9505 101.763C64.1919 100.548 63.1364 98.1571 62.565 96.3605C62.2488 95.3656 61.8417 93.7895 61.8751 93.6893C61.8979 93.6195 63.729 92.4627 63.837 92.4496C63.864 92.4459 63.9568 92.6327 64.0431 92.8642ZM55.217 92.9471C55.6564 93.1434 56.3918 93.4811 56.8512 93.698L57.6865 94.0916L58.8655 94.1149L60.0441 94.1385L60.1142 94.408C60.1526 94.5568 60.253 94.9583 60.3373 95.3004C60.7807 97.1014 61.6222 99.3703 62.469 101.05L62.7808 101.669C62.9112 101.928 62.9994 102.103 63.0054 102.114C63.0155 102.135 62.8888 102.229 62.7239 102.324L62.4241 102.497L58.8376 98.8802L55.2511 95.2638L54.1887 95.2748C53.6044 95.2805 52.882 95.3084 52.583 95.337C52.1114 95.3816 52.0073 95.4182 51.7896 95.6198C51.5711 95.8221 51.5317 95.9129 51.4787 96.3438C51.3654 97.2661 50.9529 97.8105 50.0349 98.2509C49.5861 98.4656 48.877 98.5644 48.7439 98.4303C48.7151 98.401 48.9177 98.0487 49.1941 97.6471C50.0089 96.4632 50.0379 96.3987 50.0801 95.6544L50.1172 94.997L50.5243 94.6922C51.9734 93.6085 53.7507 92.5894 54.1887 92.5903C54.3147 92.591 54.7776 92.7514 55.217 92.9471ZM46.9733 93.8394C47.792 93.885 48.4742 93.9339 48.4887 93.9479C48.5034 93.9625 48.4772 94.0833 48.4304 94.216C48.3839 94.3494 48.3263 94.7384 48.3024 95.0805L48.2593 95.7033L47.7301 96.5092C46.6905 98.0933 46.5859 98.4457 46.9434 99.1696C47.1688 99.6261 47.5228 99.9366 48.0626 100.152C48.6197 100.375 49.7273 100.372 50.3433 100.147C51.7129 99.6458 52.7553 98.6649 53.1033 97.549L53.2299 97.143L53.8428 97.1197L54.4556 97.0954L58.479 101.162C60.692 103.399 62.5234 105.299 62.5485 105.386C62.6139 105.61 62.3163 105.942 62.051 105.942C61.8813 105.942 61.4739 105.567 59.5828 103.662L57.318 101.382H56.945C56.5009 101.382 56.1833 101.604 56.0514 102.007C55.881 102.528 55.9344 102.601 58.0212 104.72C59.409 106.129 59.9744 106.75 59.9744 106.866C59.9744 107.078 59.6646 107.389 59.4539 107.389C59.336 107.389 58.6676 106.765 57.0719 105.164C55.8519 103.939 54.7824 102.9 54.6951 102.856C54.3303 102.668 53.7285 102.859 53.5432 103.22C53.4851 103.333 53.4374 103.579 53.4374 103.765V104.104L54.8833 105.619C55.6785 106.452 56.4793 107.28 56.6628 107.46C57.0378 107.827 57.0953 108.096 56.8512 108.342C56.5484 108.647 56.3876 108.558 55.3077 107.481C54.4982 106.674 54.2573 106.386 54.097 106.034C53.9872 105.792 53.8085 105.489 53.7002 105.361C53.4697 105.086 52.8739 104.776 52.4476 104.71C52.174 104.667 52.1325 104.631 51.9776 104.297C51.7661 103.842 51.2208 103.338 50.7731 103.184C50.5863 103.119 50.2597 103.067 50.0472 103.067C49.6819 103.067 49.6607 103.056 49.6607 102.881C49.6607 102.327 49.1474 101.838 48.3496 101.631C47.8086 101.491 47.2091 101.571 46.722 101.845L46.4116 102.02L46.231 101.792C46.1318 101.666 45.8741 101.465 45.6585 101.344C45.3043 101.146 45.2032 101.126 44.6127 101.126C43.8108 101.127 43.5337 101.254 42.8152 101.954L42.3253 102.431L42.0844 102.3L42.0361 102.274C41.7894 102.141 41.6664 102.074 41.6395 101.979C41.6125 101.885 41.6802 101.763 41.8157 101.52L41.8424 101.472C42.9089 99.555 43.963 96.8419 44.5491 94.5055L44.7578 93.6738L45.121 93.7156C45.3209 93.7383 46.1543 93.7941 46.9733 93.8394ZM101.432 101.189C101.94 101.451 102.363 101.889 102.599 102.397C102.761 102.746 102.791 102.908 102.788 103.433C102.785 103.969 102.756 104.115 102.576 104.48C101.833 105.983 99.928 106.35 98.6977 105.229C98.5322 105.078 98.2931 104.739 98.1616 104.471C97.9539 104.044 97.9249 103.914 97.9255 103.398C97.9265 102.905 97.9599 102.743 98.1275 102.395C98.4509 101.73 99.0107 101.237 99.7044 101.006C99.8046 100.973 100.148 100.957 100.467 100.968C100.928 100.986 101.128 101.032 101.432 101.189ZM44.9436 103.108C45.1555 103.267 45.2564 103.292 45.6048 103.273C45.9772 103.253 46.0304 103.269 46.1688 103.446C46.3519 103.681 46.7603 103.831 47.0541 103.772C47.1711 103.749 47.3846 103.649 47.5283 103.55C47.7987 103.365 47.8938 103.371 48.1978 103.591C48.3574 103.706 48.3597 103.721 48.2499 103.935C48.1066 104.215 48.1043 104.479 48.2427 104.75C48.5156 105.281 49.114 105.427 49.6174 105.081C49.9536 104.852 50.1342 104.85 50.2811 105.076C50.3698 105.213 50.3809 105.311 50.3295 105.5C50.1188 106.269 50.8106 106.95 51.5084 106.66C52.084 106.42 52.4207 106.507 52.4207 106.894C52.4207 107.092 52.3002 107.248 51.6001 107.954C50.9 108.661 50.7457 108.781 50.5494 108.781C50.2477 108.781 50.1446 108.584 50.1607 108.035C50.183 107.285 49.8203 106.896 49.1688 106.97C48.903 107 48.7805 107.072 48.4726 107.376C48.2671 107.579 48.05 107.751 47.9901 107.76C47.737 107.792 47.6193 107.746 47.5463 107.584C47.4846 107.448 47.4995 107.356 47.6204 107.128C47.8022 106.786 47.8107 106.578 47.6571 106.251C47.4461 105.803 46.9563 105.618 46.4956 105.812C46.3446 105.876 46.0491 106.092 45.8388 106.293C45.4217 106.691 45.3439 106.718 45.1449 106.536C44.986 106.391 44.9773 106.16 45.1233 105.965C45.1822 105.887 45.2299 105.668 45.2299 105.476C45.2299 105.183 45.1921 105.089 44.9853 104.868C44.7684 104.635 44.6997 104.605 44.378 104.605C44.1111 104.605 43.945 104.654 43.7479 104.788C43.6007 104.89 43.4216 104.972 43.3497 104.972C43.15 104.972 42.954 104.714 43.0033 104.515C43.0538 104.313 44.4374 102.92 44.5883 102.92C44.6461 102.92 44.8059 103.005 44.9436 103.108ZM54.2364 109.237C54.2364 109.491 54.0056 109.734 53.7645 109.734C53.6578 109.734 53.4621 109.624 53.2887 109.466L52.9943 109.198L53.34 108.843L53.6859 108.489L53.9612 108.76C54.15 108.946 54.2364 109.096 54.2364 109.237ZM24.913 63.2342V63.858H25.1806C25.3292 63.858 25.5673 63.8168 25.7147 63.7658C25.8614 63.7147 25.9987 63.6733 26.0201 63.6733C26.0413 63.6733 26.0537 65.621 26.0473 68.0016L26.0355 72.33L25.7884 72.4147C25.6523 72.4614 25.3999 72.5653 25.2272 72.6456L24.913 72.7915V73.2238V73.656H28.4866H32.0605V72.1754V70.6949L31.5462 70.7082L31.0322 70.7212L30.9511 70.9418C30.8691 71.1647 30.7634 71.6916 30.6985 72.2001L30.663 72.4774H29.0366H27.41V68.1883V63.8994L27.7455 63.7852C27.93 63.7227 28.1826 63.6193 28.3068 63.5559L28.5325 63.4406V63.0253V62.6103H26.7228H24.913V63.2342ZM42.7 63.2226L42.7127 63.8351L42.9711 63.8486C43.1422 63.8577 43.3241 63.8303 43.5082 63.7678C43.6613 63.7159 43.7974 63.6733 43.8108 63.6733C43.8241 63.6733 43.8352 65.6233 43.8352 68.0066V72.3401L43.4517 72.4712C43.2408 72.5435 42.9884 72.6479 42.8905 72.7032L42.7127 72.8037L42.6996 73.2297L42.6864 73.656H44.5894H46.4924V73.0329V72.4099L46.3745 72.3799C46.2131 72.3392 45.8262 72.3897 45.4885 72.4957L45.2087 72.5836L45.2207 70.6357L45.2324 68.6878L45.9885 68.6763C46.4044 68.6699 46.7663 68.6805 46.7927 68.6992C46.8195 68.7184 47.4173 69.6781 48.1216 70.832C49.4491 73.0075 49.7194 73.3826 50.0881 73.5629C50.5382 73.7825 51.3721 73.7789 51.7673 73.5549L51.9446 73.4544V72.9556V72.457L51.3682 72.4442L50.7917 72.4312L49.3922 70.2215L47.9926 68.0119L49.3615 65.9521L50.7305 63.8923L51.066 63.7818C51.2505 63.7211 51.5031 63.6193 51.6273 63.5559L51.853 63.4406V63.0253V62.6103H50.0421H48.231L48.2436 63.2226L48.2565 63.8351L48.5163 63.8488C48.6593 63.8564 48.9037 63.8291 49.0598 63.7884C49.2158 63.7477 49.3505 63.7214 49.359 63.7301C49.3678 63.7388 48.833 64.5877 48.1706 65.616L46.9664 67.486L46.0873 67.4986L45.2087 67.5112L45.2205 65.7004L45.2324 63.8898L45.5304 63.7882C45.6942 63.7326 45.9365 63.6315 46.0687 63.5637L46.3093 63.4406V63.0253V62.6103H44.4982H42.6871L42.7 63.2226ZM54.2813 63.0178V63.4251L54.4687 63.5315C54.5719 63.5898 54.8246 63.6953 55.03 63.7658L55.4038 63.8934L55.4146 68.1162L55.4256 72.3387L55.094 72.4449C54.9116 72.5032 54.6592 72.6071 54.5332 72.676L54.3043 72.8009L54.2909 73.2284L54.2778 73.656H58.0822H61.8868V72.2463V70.8368H61.4115H60.9359L60.8343 71.0752C60.7376 71.302 60.6563 71.6589 60.5727 72.2232L60.5351 72.4774H58.6796H56.824L56.8121 70.5247L56.8001 68.5722H58.4502H60.0999V68.0176V67.4629H58.4507H56.8012V65.6143V63.7658H58.5361H60.271L60.3214 64.1591C60.3491 64.3753 60.4297 64.7238 60.5004 64.9332L60.6289 65.3139L61.1434 65.327L61.6576 65.34V63.9751V62.6103H57.9696H54.2813V63.0178ZM35.2675 63.2795V63.9026L35.3826 63.9317C35.5358 63.9706 35.8782 63.9156 36.1608 63.8074C36.2868 63.7589 36.3952 63.7195 36.4015 63.7195C36.4079 63.7195 36.413 65.6718 36.413 68.0579V72.3962L36.0579 72.5229C35.8626 72.5929 35.6048 72.6998 35.4851 72.7609L35.2675 72.8719V73.2874V73.702H37.146H39.0244V73.0783V72.4543L38.7381 72.455C38.4855 72.4554 38.2298 72.5028 37.8906 72.6122L37.7874 72.6453V68.3018V63.958L38.0279 63.8802C38.1603 63.8374 38.4076 63.739 38.5778 63.6617L38.8869 63.5209V63.0887V62.6565H37.0772H35.2675V63.2795ZM70.2834 63.9266V63.2768V62.627H72.2106H74.1378V63.078V63.5292L73.8603 63.6596C73.7069 63.7312 73.4448 63.8351 73.2762 63.8905L72.9706 63.9909V66.8829C72.9706 69.4909 72.977 69.8151 73.0374 70.1858C73.2138 71.2741 73.6067 71.9356 74.2545 72.2348C74.7782 72.4769 74.904 72.4891 76.9173 72.4891H78.715L78.7238 68.1434L78.7332 63.7976L78.4834 63.8809C78.2436 63.9607 77.8818 63.9921 77.754 63.9442C77.704 63.9252 77.6953 63.8317 77.6953 63.2745V62.627H79.5119H81.3276V63.0784V63.5299L81.0218 63.6736C80.8534 63.7525 80.6035 63.8532 80.4653 63.8969L80.2157 63.9765L80.2251 68.2327L80.2346 72.4891L81.2251 72.4987L82.2166 72.5083V73.9203V75.3323L81.6726 75.322L81.1293 75.3117L81.0268 75.0406C80.8976 74.6978 80.8076 74.3175 80.7769 73.9811L80.753 73.7196L77.6771 73.6983C74.7253 73.6787 74.588 73.675 74.2859 73.6025C73.1426 73.329 72.4252 72.7865 71.9727 71.8536C71.7838 71.4637 71.6473 71.0015 71.5565 70.4432C71.5036 70.1172 71.4927 69.6234 71.4796 66.912L71.4642 63.7598L71.2214 63.8459C70.9453 63.9438 70.6137 63.9873 70.4172 63.9511L70.2834 63.9266ZM84.3296 63.4946V63.0608V62.627H88.2394H92.1491V64.0394V65.4519L91.6023 65.4418L91.0561 65.4318L90.9697 65.2199C90.8375 64.8941 90.7394 64.4852 90.7148 64.1561L90.6929 63.8575H88.8633H87.0343V65.5947V67.3318H88.9801H90.9259V67.911V68.4899H88.9801H87.0336L87.0437 70.4895L87.0532 72.4891L89.0064 72.4984L90.9593 72.5078L90.9782 72.3897C90.9886 72.325 91.0146 72.1385 91.0372 71.9758C91.083 71.6388 91.1912 71.2342 91.3029 70.9796L91.3799 70.8061H91.9123H92.4455V72.2538V73.7013H88.3875H84.3296V73.2647V72.8282L84.6352 72.6888C84.8031 72.6119 85.0783 72.503 85.2469 72.4467L85.5527 72.3442L85.5433 68.1704L85.5339 63.9964L85.2186 63.8953C84.8344 63.7717 84.6608 63.6992 84.4726 63.5834L84.3296 63.4946ZM94.6317 63.9266V63.2768V62.627H96.579H98.5255L98.5154 63.0704L98.5045 63.5136L98.2489 63.645C98.1086 63.717 97.8465 63.8227 97.6664 63.8802L97.3394 63.9841L97.338 65.6402L97.3373 67.2961L100.182 67.2868L103.026 67.2776V65.5224C103.026 64.3714 103.014 63.7697 102.989 63.7745C102.968 63.7784 102.851 63.8168 102.73 63.8596C102.476 63.9486 102.151 63.987 101.955 63.9511L101.822 63.9266V63.2768V62.627H103.749H105.675V63.0775V63.5278L105.407 63.6571C105.259 63.728 104.997 63.8328 104.824 63.89L104.508 63.9939L104.499 68.2867C104.494 70.6478 104.504 72.5794 104.521 72.5794C104.538 72.5794 104.649 72.5469 104.768 72.5071C105.084 72.4007 105.429 72.3511 105.659 72.379L105.861 72.4037V73.0526V73.7013H103.842H101.822V73.2656V72.8298L102.071 72.7172C102.21 72.6554 102.48 72.5451 102.674 72.4721L103.026 72.3396L103.035 70.4329L103.046 68.526H100.191H97.3373V70.5528C97.3373 71.6676 97.3417 72.5792 97.3468 72.579C97.3519 72.5788 97.4578 72.5474 97.5828 72.509C97.935 72.4012 98.2627 72.3538 98.4762 72.3799L98.6715 72.4037V73.0526V73.7013H96.6517H94.6317V73.2727V72.8444L94.8169 72.7458C94.9194 72.6916 95.1902 72.5781 95.4198 72.4934L95.836 72.3394L95.8454 68.0624C95.8535 64.6524 95.8454 63.7852 95.8084 63.7852C95.783 63.7852 95.6725 63.8186 95.5622 63.8594C95.3335 63.9445 94.9622 63.9873 94.766 63.9511L94.6317 63.9266ZM107.751 65.4498V64.0385V62.627H112.235H116.719V64.0385V65.4498H116.199H115.678L115.586 65.2537C115.468 65.0023 115.327 64.4566 115.293 64.12L115.267 63.8575H114.122H112.977V68.2185C112.977 70.6171 112.989 72.579 113.004 72.5785C113.019 72.5781 113.131 72.5453 113.252 72.5058C113.56 72.4055 113.927 72.3538 114.134 72.3817L114.311 72.4053V73.0533V73.7013H112.308H110.306L110.316 73.2581L110.327 72.8147L110.59 72.6863C110.735 72.6156 110.997 72.5099 111.174 72.4515L111.494 72.3451V68.1013V63.8575H110.352H109.21L109.165 64.1799C109.119 64.525 108.99 64.9982 108.867 65.278L108.791 65.4498H108.271H107.751ZM119.221 63.5106L119.211 63.0665L119.2 62.6224L121.657 62.637C124.18 62.6521 124.337 62.6601 124.932 62.8089C126.151 63.1134 126.836 63.8191 127.044 64.9853C127.136 65.5013 127.101 66.3733 126.971 66.7994C126.541 68.2059 125.374 69.0699 123.708 69.2138C123.482 69.2333 122.977 69.2495 122.585 69.2495L121.871 69.25V70.9146C121.871 71.8303 121.883 72.5794 121.9 72.5794C121.916 72.5794 122.086 72.5403 122.279 72.4927C122.736 72.3799 123.009 72.3481 123.261 72.3788L123.465 72.4037V73.0526V73.7013H121.334H119.203V73.2675V72.8336L119.489 72.6936C119.648 72.6165 119.914 72.5064 120.083 72.4488L120.389 72.3442L120.379 68.1693L120.37 63.9944L119.967 63.8557C119.744 63.7795 119.486 63.6706 119.392 63.6138L119.221 63.5106ZM125.554 65.8299C125.557 64.6339 125.026 64.0792 123.705 63.895C123.563 63.8751 123.091 63.8587 122.658 63.8582L121.871 63.8575V65.9608V68.064L122.751 68.0464C123.494 68.0318 123.678 68.0169 123.927 67.9519C125.03 67.665 125.551 66.9856 125.554 65.8299Z" fill="white"/>
</svg>