<svg width="151" height="149" viewBox="0 0 151 149"  xmlns="http://www.w3.org/2000/svg">
<path fill-rule="evenodd" clip-rule="evenodd" d="M147.953 74.8419C147.953 114.441 115.669 146.541 75.8439 146.541C36.0195 146.541 3.73481 114.44 3.73481 74.8413C3.73481 35.2427 36.0195 3.14209 75.8439 3.14209C115.668 3.14209 147.953 35.2433 147.953 74.8419ZM125.018 55.497L123.602 51.6738C123.5 51.1703 123.298 50.668 121.782 51.0699C115.939 52.6187 108.183 57.3381 104.654 61.1642C100.743 65.4412 98.5571 71.7392 99.1501 79.0151C99.9028 88.2593 105.596 95.5426 115.967 94.7069C124.31 94.0349 129.697 87.2386 129.071 79.5454C128.414 71.4954 122.556 67.3457 116.059 67.868C112.483 68.1563 109.834 69.5105 108.082 71.5725L107.904 71.5873C108.552 67.0323 111.871 61.5187 118.948 57.6093C119.858 57.1058 124 55.5187 125.018 55.497ZM108.871 76.1409C110.487 75.4025 114.794 73.4344 117.437 74.9047C119.185 75.8769 121.345 77.6255 120.364 84.3665C119.746 88.6127 116.268 89.6152 115.615 89.7916C115.057 89.944 113.686 90.0205 112.377 89.5912C111.083 89.1659 109.847 88.2382 109.445 87.3984C107.6 83.5376 108.035 78.6824 108.19 76.9587C108.214 76.6852 108.232 76.4906 108.232 76.3913C108.232 76.4332 108.467 76.3255 108.871 76.1409ZM77.1082 52.2339L78.524 56.0554C77.5061 56.0782 73.3648 57.6653 72.4536 58.1688C65.3784 62.0765 62.0593 67.5917 61.4094 72.1457L61.5885 72.132C63.3402 70.0699 65.991 68.7158 69.5668 68.4275C76.0638 67.904 81.9218 72.0537 82.5769 80.1049C83.2033 87.7981 77.8178 94.5944 69.4732 95.2664C59.1025 96.1021 53.4087 88.8171 52.656 79.5745C52.0629 72.2987 54.2504 66.0007 58.1603 61.7225C61.6884 57.897 69.4439 53.1787 75.287 51.6293C76.8051 51.2269 77.0077 51.7304 77.1082 52.2339ZM70.943 75.4636C68.2998 73.9944 63.9916 75.9628 62.3766 76.7008C61.9735 76.885 61.7381 76.9925 61.7384 76.9508C61.7382 77.0501 61.7208 77.2446 61.6963 77.518C61.5418 79.2415 61.1067 84.0972 62.9527 87.9568C63.3534 88.7983 64.5896 89.7254 65.8848 90.1513C67.1927 90.58 68.5626 90.5041 69.1219 90.3516C69.7758 90.1752 73.2523 89.1711 73.8706 84.9271C74.8512 78.1856 72.6936 76.437 70.943 75.4636ZM19.7437 89.6534L20.9959 94.1827C20.9959 94.1827 21.0636 94.6012 21.3455 94.9232C21.5572 95.164 21.6667 95.1843 21.802 95.2094C21.8473 95.2178 21.8954 95.2267 21.9513 95.2446C24.4505 96.0524 28.5379 95.8988 33.1672 95.3822C43.0689 94.2769 50.6028 86.1858 49.8352 79.3838C49.2559 74.2521 44.6822 71.3218 39.9071 71.0095L39.1394 71.2236C45.1743 69.5081 48.2103 64.9085 47.5443 60.9375C46.6831 55.7938 42.3724 51.5077 32.4208 52.6871C27.3241 53.29 21.9151 57.0418 19.7431 58.7944L23.2902 63.3118L23.3919 63.2327C26.0216 61.1885 28.833 59.003 31.8122 58.5803C35.5378 58.0494 37.8935 60.8147 38.4929 63.08C39.5706 67.1509 34.0123 68.4 30.951 68.7409L26.6392 69.08L26.8545 75.5092H33.5375C37.417 75.7233 40.4336 77.2247 40.2183 82.1526C40.1465 83.7921 38.7393 86.4399 36.3388 87.7244C33.5369 89.2252 31.1577 89.9679 28.8433 90.2265C25.1223 90.6427 21.4644 90.3681 19.7437 89.6534ZM93.1372 74.8351C92.5999 75.5475 92.1894 76.0006 91.8008 76.4295C91.4323 76.8362 91.0835 77.2211 90.665 77.7849C90.067 77.0846 89.633 76.6091 89.2349 76.1731C88.6891 75.5753 88.211 75.0516 87.471 74.1244C86.5575 72.9855 85.4443 71.5143 85.4443 69.9786C85.4443 68.5731 86.5409 67.549 87.9533 67.549C89.2991 67.549 90.3469 68.673 90.6282 69.929C90.9773 68.6233 91.9252 67.549 93.387 67.549C94.7328 67.549 95.8133 68.6393 95.8133 69.9946C95.8133 71.3538 94.9565 72.467 94.1525 73.5116C94.0964 73.5845 94.0405 73.657 93.9853 73.7293L93.1372 74.8351Z" />
</svg>
