<svg width="239" height="46" viewBox="0 0 239 46" fill="none" xmlns="http://www.w3.org/2000/svg">
<g clip-path="url(#clip0_150_479)">
<path d="M23.977 0.0957958C23.272 0.0383161 22.5605 0 21.8424 0C21.1243 0 20.4062 0.0383161 19.7012 0.0957958V4.56647C19.7012 23.7265 18.9897 32.1313 16.1304 45.2559C19.8621 46.248 23.7966 46.248 27.5282 45.2559C24.6886 32.2271 23.977 23.7904 23.977 4.56009V0.0957958Z" fill="white"/>
<path d="M43.6522 24.6206C43.6469 21.0284 42.7149 17.4956 40.9428 14.3495C39.1707 11.2035 36.6156 8.54585 33.5143 6.62294L33.5927 11.7642C36.308 14.1247 38.21 17.2495 39.0376 20.7099C39.8651 24.1701 39.5776 27.7962 38.2144 31.0902C32.261 25.3423 31.1447 18.0807 30.9293 10.0142L30.8835 5.23065C29.5059 4.61813 28.0662 4.14931 26.5882 3.83197V7.66397C26.6861 22.2256 28.2332 33.2106 35.0745 41.5516C39.42 38.2834 42.3474 33.5335 43.2735 28.2482C43.3389 27.8586 43.4498 27.0092 43.4498 26.9708C43.5415 26.197 43.5873 25.4187 43.5869 24.6397L43.6522 24.6206Z" fill="white"/>
<path d="M17.0313 7.66397V3.83197C15.5642 4.15351 14.1354 4.62444 12.7686 5.23705L12.7229 10.0207C12.5075 18.087 11.4173 25.3487 5.43773 31.0967C4.0746 27.8026 3.78712 24.1765 4.61464 20.7162C5.44217 17.2559 7.34417 14.131 10.0595 11.7706L10.1379 6.62933C7.0366 8.55229 4.48149 11.2099 2.70935 14.356C0.937195 17.502 0.0053264 21.0348 3.19552e-06 24.6269C-0.000440429 25.4059 0.0453064 26.1843 0.137064 26.9581C0.137064 26.9964 0.248051 27.8458 0.313331 28.2354C1.2395 33.5207 4.16698 38.2707 8.5124 41.5388C15.3863 33.2107 16.9334 22.2192 17.0313 7.66397Z" fill="white"/>
<path d="M100.608 16.1263C97.4751 16.1263 95.1182 17.3015 93.9624 19.2622H93.708V16.7075H87.9505V43.589H93.6888V35.0883H93.9431C95.099 37.0491 97.4551 38.2242 100.588 38.2242C106.463 38.2242 111.15 33.3256 111.15 27.1753C111.15 21.0249 106.503 16.1263 100.608 16.1263ZM99.4524 32.9105C98.2874 32.9257 97.1439 32.6015 96.1679 31.9793C95.1912 31.357 94.4258 30.4646 93.9693 29.4158C93.5128 28.3669 93.3852 27.2088 93.6027 26.0888C93.8202 24.9688 94.3735 23.9375 95.1919 23.1259C96.0104 22.3144 97.0571 21.7592 98.199 21.5312C99.341 21.3031 100.526 21.4124 101.604 21.8451C102.682 22.2778 103.605 23.0144 104.254 23.9612C104.903 24.9081 105.249 26.0224 105.249 27.1624C105.265 27.9149 105.125 28.6625 104.84 29.3614C104.555 30.0603 104.129 30.6963 103.589 31.232C103.049 31.7677 102.405 32.1921 101.695 32.4804C100.984 32.7686 100.222 32.9149 99.4524 32.9105Z" fill="white"/>
<path d="M228.954 17.7102C225.69 17.7102 223.078 18.9875 221.545 21.1718H221.283C221.714 17.1929 223.895 15.2641 228.679 14.5743L237.016 13.3481V7.97058L228.131 9.24792C219.919 10.4166 215.982 14.8362 215.982 22.8067C215.982 28.5547 216.348 30.3941 217.353 32.572C218.946 36.0719 222.882 38.2178 227.641 38.2178C234.052 38.2178 239 33.5874 239 27.5265C239.019 21.7147 234.926 17.7102 228.954 17.7102ZM227.583 32.8786C224.319 32.8786 221.903 30.6112 221.903 27.5329C221.903 24.4545 224.286 22.1554 227.583 22.1554C228.318 22.1305 229.051 22.2508 229.738 22.509C230.425 22.7673 231.052 23.1582 231.582 23.6586C232.111 24.1589 232.532 24.7584 232.82 25.4212C233.107 26.0842 233.256 26.7968 233.256 27.5169C233.256 28.237 233.107 28.9497 232.82 29.6127C232.532 30.2755 232.111 30.875 231.582 31.3753C231.052 31.8756 230.425 32.2666 229.738 32.5248C229.051 32.7831 228.318 32.9034 227.583 32.8786Z" fill="white"/>
<path d="M81.9578 10.4229L75.4953 23.6816L66.6955 10.4229H59.8282L72.6034 29.6149L72.2508 30.3429C71.7025 31.5053 70.9453 32.1312 69.2872 32.1312H64.7699V37.6812H69.927C73.8436 37.6812 75.4561 36.6658 77.1079 33.3255L88.4077 10.4484L81.9578 10.4229Z" fill="white"/>
<path d="M144.325 16.7522L143.346 29.7427C143.196 31.7737 142.524 32.5209 140.938 32.5209H139.521V37.8091H142.935C146.787 37.8091 148.49 36.0144 148.771 32.2846L149.522 22.1872H156.585V37.6302H162.369V16.7522H144.325Z" fill="white"/>
<path d="M177.383 21.4975C178.449 21.4939 179.494 21.7868 180.397 22.342C181.3 22.8972 182.023 23.6918 182.482 24.6334L187.606 22.6663C186.169 18.6938 182.11 16.1263 177.259 16.1263C174.264 16.1263 171.391 17.2904 169.273 19.3625C167.156 21.4345 165.966 24.2449 165.966 27.1753C165.966 30.1056 167.156 32.916 169.273 34.988C171.391 37.0601 174.264 38.2242 177.259 38.2242C182.11 38.2242 186.169 35.6695 187.606 31.6842L182.482 29.7108C182.024 30.654 181.302 31.4503 180.399 32.0068C179.496 32.5632 178.45 32.8567 177.383 32.853C174.119 32.853 171.763 30.4899 171.763 27.1753C171.763 23.8606 174.119 21.4975 177.383 21.4975Z" fill="white"/>
<path d="M205.714 16.7204L196.797 29.9919V16.7204H191.059V37.6304H197.411L206.262 24.4483V37.6304H212.001V16.7204H205.714Z" fill="white"/>
<path d="M130.891 19.2622H130.643C129.481 17.3015 127.131 16.1263 123.991 16.1263C118.116 16.1263 113.429 21.0249 113.429 27.1753C113.429 33.3256 118.103 38.2242 123.991 38.2242C127.131 38.2242 129.481 37.0491 130.643 35.0883H130.891V37.643H136.629V16.7203H130.891V19.2622ZM125.16 32.9105C123.993 32.9371 122.843 32.6228 121.859 32.0076C120.875 31.3925 120.101 30.5043 119.635 29.4567C119.17 28.409 119.034 27.2492 119.244 26.1256C119.455 25.0019 120.003 23.9652 120.82 23.1479C121.636 22.3305 122.682 21.7696 123.825 21.5367C124.969 21.3038 126.157 21.4096 127.238 21.8404C128.32 22.2713 129.245 23.0077 129.897 23.9556C130.549 24.9035 130.897 26.02 130.897 27.1624C130.914 27.9105 130.778 28.6542 130.497 29.35C130.217 30.0459 129.797 30.68 129.262 31.2153C128.728 31.7505 128.09 32.1761 127.385 32.4672C126.681 32.7583 125.925 32.9089 125.16 32.9105Z" fill="white"/>
</g>
<defs>
<clipPath id="clip0_150_479">
<rect width="239" height="46" fill="white"/>
</clipPath>
</defs>
</svg>
