<svg width="160" height="126" viewBox="0 0 160 126" fill="none" xmlns="http://www.w3.org/2000/svg">
<path d="M13.1749 102.781C15.5105 102.781 18.0644 103.751 19.9557 105.385C20.2063 105.578 20.2343 105.911 20.0116 106.132L17.8148 108.46C17.5943 108.653 17.2887 108.653 17.0671 108.485C16.0107 107.517 14.7864 107.157 13.4277 107.157C10.3982 107.157 7.95185 109.706 7.95185 112.751C7.95185 115.772 10.4273 118.265 13.4546 118.265C14.2614 118.265 15.093 118.153 15.9257 117.823V116.216H14.1775C13.872 116.216 13.6471 115.994 13.6471 115.717V112.975C13.6471 112.67 13.872 112.449 14.1775 112.449H19.762C20.0396 112.449 20.2623 112.697 20.2623 112.975L20.2902 120.425C20.2902 120.564 20.1783 120.787 20.0654 120.868C20.0654 120.868 17.2048 122.669 13.1749 122.669C7.64525 122.669 3.20001 118.293 3.20001 112.752C3.20001 107.213 7.64525 102.781 13.1749 102.781Z" fill="white"/>
<path d="M38.6821 111.311C39.8214 111.311 40.794 110.259 40.794 109.096C40.794 107.932 39.8214 106.992 38.6821 106.992H34.5704V111.311H38.6821ZM30.2091 103.556C30.2091 103.281 30.4318 103.031 30.7373 103.031H39.0447C42.3784 103.031 45.1016 105.718 45.1016 109.014C45.1016 111.563 43.4072 113.611 40.9896 114.581L44.7968 121.616C44.9916 121.976 44.7968 122.419 44.3248 122.419H40.6272C40.4056 122.419 40.2388 122.281 40.1828 122.169L36.4875 114.829H34.5704V121.893C34.5704 122.169 34.3208 122.419 34.0432 122.419H30.7362C30.4307 122.419 30.208 122.169 30.208 121.893V103.556H30.2091Z" fill="white"/>
<path d="M63.3008 115.772L61.1912 111.202H61.1612L59.0784 115.772H63.3008ZM51.8812 121.698L60.58 103.058C60.662 102.893 60.8576 102.752 61.0504 102.752H61.33C61.5236 102.752 61.7164 102.892 61.8 103.058L70.4992 121.698C70.666 122.059 70.4432 122.418 70.028 122.418H66.9436C66.4432 122.418 66.2216 122.253 65.9688 121.726L64.9704 119.54H57.4128L56.4104 121.754C56.2716 122.088 55.966 122.418 55.41 122.418H52.3536C51.936 122.419 51.7132 122.059 51.8812 121.698Z" fill="white"/>
<path d="M74.0308 103.751C73.8652 103.391 74.0868 103.032 74.5032 103.032H78.1988C78.4236 103.032 78.6172 103.197 78.6732 103.336L83.258 113.446H83.424L88.008 103.336C88.0636 103.197 88.2584 103.032 88.48 103.032H92.1756C92.5928 103.032 92.8144 103.393 92.6476 103.751L83.9228 122.391C83.84 122.559 83.6736 122.697 83.4508 122.697H83.1732C82.9516 122.697 82.7828 122.559 82.7008 122.391L74.0308 103.751Z" fill="white"/>
<path d="M100.485 103.556C100.485 103.281 100.734 103.031 101.013 103.031H104.348C104.626 103.031 104.875 103.281 104.875 103.556V121.893C104.875 122.17 104.626 122.42 104.348 122.42H101.013C100.734 122.42 100.485 122.17 100.485 121.893V103.556Z" fill="white"/>
<path d="M123.28 118.265C126.336 118.265 128.837 115.773 128.837 112.751C128.837 109.706 126.336 107.185 123.28 107.185C120.251 107.185 117.75 109.707 117.75 112.751C117.75 115.773 120.251 118.265 123.28 118.265ZM123.28 102.753C128.837 102.753 133.283 107.213 133.283 112.752C133.283 118.292 128.837 122.698 123.28 122.698C117.722 122.698 113.305 118.292 113.305 112.752C113.305 107.213 117.722 102.753 123.28 102.753Z" fill="white"/>
<path d="M140.074 103.253C140.074 102.976 140.324 102.753 140.602 102.753H141.296L152.382 113.39H152.41V103.556C152.41 103.281 152.632 103.032 152.938 103.032H156.273C156.55 103.032 156.8 103.281 156.8 103.556V122.197C156.8 122.475 156.55 122.698 156.273 122.698H155.828C155.745 122.698 155.522 122.614 155.467 122.559L144.492 111.563H144.464V121.893C144.464 122.171 144.241 122.42 143.936 122.42H140.628C140.352 122.42 140.102 122.171 140.102 121.893L140.074 103.253Z" fill="white"/>
<path d="M80.8076 79.3022C80.7632 79.3022 80.718 79.3022 80.6752 79.301C78.2944 79.2763 75.9276 78.6009 73.8296 77.3473C71.7652 76.1108 55.9144 67.0412 53.1344 65.5196C46.7452 62.0247 46.7452 56.7431 46.7452 53.5871V31.6737C46.7452 29.1867 46.8228 26.9476 47.7544 24.7277C49.1152 21.4901 51.7392 19.8247 53.5628 18.7963C56.2028 17.3046 69.3944 9.6337 75.4992 6.07763C79.6864 3.639 84.4156 1.97786 88.7588 4.72213C92.4628 7.0621 92.9424 11.2766 88.9124 13.6927C88.166 14.1399 68.996 25.1449 63.0952 28.6624C60.3996 30.2688 60.0704 30.9991 60.0704 33.6554V52.0966C60.0704 53.4467 60.6436 54.4866 61.9344 55.2159C65.5352 57.2495 71.99 60.9545 76.3408 63.451C78.9612 64.9534 82.5328 65.0403 84.9836 63.6396C90.564 60.4493 97.2984 56.564 98.9768 55.572C101.392 54.1445 101.57 53.7019 101.57 50.7796V37.0271C101.57 34.8597 100.004 34.0544 98.2396 35.1182C94.3032 37.4903 88.4196 40.8288 88.2712 40.9133C85.0912 42.7579 79.8176 42.787 74.9884 40.0309C71.7944 38.2089 71.974 35.0345 75.154 33.1911C76.062 32.6645 98.142 19.8312 100.703 18.3802C106.033 15.3592 114.966 15.9909 114.966 27.812V54.2518C114.966 56.6003 114.773 58.5585 113.827 60.4868C112.63 62.931 110.703 64.2329 109.158 65.0949C108.144 65.66 102.541 68.8945 97.5984 71.749C93.1276 74.3304 88.906 76.7679 87.7432 77.4266C85.5712 78.6555 83.1764 79.3022 80.8076 79.3022Z" fill="white"/>
</svg>
