<svg width="279" height="42" viewBox="0 0 279 42" fill="none" xmlns="http://www.w3.org/2000/svg">
<path fill-rule="evenodd" clip-rule="evenodd" d="M13.291 0.754028H0.824005L15.149 20.851L0.824005 41.017H13.291L27.621 20.851L13.291 0.754028Z" fill="white"/>
<path d="M29.132 9.76105H35.117L39.719 17.258L44.481 9.76105H50.13L42.613 20.962L50.787 33.231H44.642L39.521 25.11L34.294 33.231H28.507L36.697 20.931L29.132 9.76105Z" fill="white"/>
<path d="M57.499 13.638L56.58 18.87L56.649 18.934C57.29 18.299 57.968 17.839 58.689 17.567C59.41 17.288 60.232 17.156 61.15 17.156C62.293 17.156 63.301 17.364 64.177 17.78C65.052 18.197 65.795 18.752 66.398 19.451C67.001 20.15 67.461 20.972 67.78 21.929C68.101 22.88 68.261 23.888 68.261 24.961C68.261 26.152 68.026 27.246 67.567 28.256C67.109 29.276 66.483 30.161 65.709 30.904C64.924 31.651 64.022 32.217 62.997 32.622C61.962 33.029 60.872 33.221 59.708 33.199C58.587 33.199 57.519 33.05 56.5 32.752C55.485 32.458 54.583 32.003 53.793 31.395C53.002 30.776 52.373 30.019 51.903 29.11C51.433 28.203 51.187 27.145 51.166 25.939H55.833C55.94 26.991 56.334 27.829 57.018 28.447C57.691 29.073 58.556 29.388 59.608 29.388C60.222 29.388 60.777 29.264 61.263 29.014C61.759 28.762 62.176 28.437 62.517 28.031C62.853 27.626 63.115 27.156 63.302 26.622C63.494 26.083 63.585 25.532 63.585 24.967C63.585 24.38 63.494 23.82 63.317 23.297C63.147 22.778 62.88 22.32 62.533 21.925C62.18 21.529 61.769 21.22 61.278 21.007C60.798 20.787 60.243 20.686 59.607 20.686C58.774 20.686 58.096 20.825 57.573 21.124C57.039 21.423 56.548 21.883 56.089 22.523H51.887L54.156 9.79401H67.013V13.639H57.499" fill="white"/>
<path d="M83.27 9.76105C84.23 9.76105 85.144 9.87405 86.014 10.12C86.873 10.359 87.631 10.722 88.278 11.224C88.924 11.716 89.437 12.35 89.821 13.125C90.2 13.904 90.398 14.823 90.398 15.88C90.398 17.369 90.014 18.667 89.245 19.755C88.475 20.851 87.343 21.549 85.828 21.859V21.929C86.597 22.04 87.232 22.239 87.739 22.533C88.241 22.831 88.657 23.205 88.978 23.665C89.293 24.135 89.522 24.658 89.666 25.267C89.81 25.865 89.901 26.516 89.949 27.215C89.97 27.61 89.992 28.091 90.013 28.662C90.034 29.234 90.076 29.805 90.146 30.388C90.204 30.969 90.316 31.519 90.461 32.026C90.6 32.549 90.792 32.944 91.032 33.233H88.554C88.421 33.009 88.319 32.742 88.239 32.427C88.164 32.112 88.111 31.78 88.079 31.44C88.047 31.103 88.015 30.767 87.994 30.436C87.972 30.104 87.951 29.827 87.924 29.581C87.881 28.754 87.817 27.926 87.716 27.104C87.614 26.287 87.406 25.556 87.086 24.909C86.771 24.258 86.312 23.746 85.709 23.35C85.11 22.949 84.283 22.778 83.232 22.821H74.774V33.232H72.521V9.76205H83.27M83.099 20.899C83.777 20.899 84.428 20.797 85.037 20.589C85.651 20.381 86.19 20.076 86.649 19.686C87.108 19.296 87.472 18.81 87.749 18.26C88.016 17.706 88.15 17.065 88.15 16.339C88.15 14.893 87.738 13.755 86.906 12.922C86.078 12.089 84.813 11.677 83.099 11.677H74.775V20.898H83.099V20.899Z" fill="white"/>
<path d="M109.981 9.76105V11.678H96.02V20.129H109.095V22.052H96.02V31.309H110.146V33.231H93.776V9.76105H109.981Z" fill="white"/>
<path d="M129.97 9.76105V11.678H121.786V33.231H119.548V11.678H111.396V9.76105H129.97Z" fill="white"/>
<path d="M138.245 9.76105L147.439 33.231H145.047L142.185 25.927H131.506L128.682 33.231H126.317L135.746 9.76105H138.245ZM141.433 24.007L136.896 11.978L132.202 24.007H141.433Z" fill="white"/>
<path d="M151.977 9.75104H149.734V33.231H151.977V9.75104Z" fill="white"/>
<path d="M159.111 9.76105V31.309H172.255V33.231H156.867V9.76105H159.111Z" fill="white"/>
<path d="M185.505 34.12C183.667 34.12 182.023 33.793 180.582 33.112C179.162 32.443 177.96 31.541 177.005 30.385C176.053 29.245 175.337 27.897 174.855 26.371C174.37 24.846 174.132 23.216 174.132 21.5C174.132 19.748 174.394 18.115 174.908 16.574C175.433 15.033 176.183 13.685 177.156 12.549C178.133 11.396 179.331 10.489 180.734 9.83405C182.144 9.17705 183.747 8.84705 185.526 8.84705C186.876 8.84705 188.128 9.04105 189.28 9.42405C190.428 9.81105 191.443 10.367 192.323 11.08C193.196 11.803 193.919 12.664 194.473 13.663C195.04 14.668 195.417 15.802 195.626 17.034L195.701 17.474H195.254H194.275L194.219 17.161C194.034 16.114 193.693 15.175 193.204 14.318C192.708 13.467 192.098 12.747 191.352 12.147C190.609 11.542 189.751 11.078 188.77 10.749C187.799 10.421 186.714 10.261 185.524 10.261C183.927 10.261 182.523 10.555 181.3 11.141C180.062 11.733 179.024 12.534 178.175 13.541C177.32 14.555 176.666 15.739 176.22 17.108C175.773 18.476 175.551 19.945 175.551 21.501C175.551 23.067 175.768 24.54 176.197 25.915C176.616 27.279 177.248 28.473 178.092 29.478C178.924 30.478 179.977 31.278 181.228 31.875C182.473 32.456 183.928 32.758 185.611 32.758C186.867 32.758 188.028 32.542 189.111 32.11C190.21 31.677 191.168 31.075 191.967 30.314C192.773 29.555 193.4 28.645 193.867 27.583C194.325 26.521 194.555 25.377 194.555 24.134V23.294H185.459V22.918V22.265V21.888H195.98V33.598H195.603H194.554L194.565 29.12C193.877 30.442 192.906 31.532 191.669 32.378C189.953 33.544 187.895 34.12 185.521 34.12C185.519 34.12 185.513 34.12 185.505 34.12Z" fill="white"/>
<path d="M198.267 33.607H197.891V9.39301H207.892C210.401 9.39601 212.293 9.87501 213.546 10.946C214.794 12.008 215.408 13.65 215.462 15.777C215.466 15.852 215.466 15.926 215.466 16.001C215.466 17.553 215.013 18.885 214.112 19.95C213.429 20.76 212.53 21.376 211.438 21.799C211.874 21.926 212.265 22.082 212.612 22.27C213.277 22.636 213.804 23.126 214.165 23.74C214.518 24.334 214.757 25.031 214.875 25.823C214.979 26.592 215.033 27.44 215.033 28.406C215.033 28.71 215.054 29.126 215.071 29.617C215.092 30.105 215.128 30.587 215.167 31.06C215.216 31.535 215.266 31.961 215.328 32.351C215.385 32.72 215.476 32.955 215.525 33.012L215.961 33.61H215.219H214.26L214.159 33.398C214.015 33.104 213.922 32.754 213.846 32.316C213.782 31.906 213.728 31.456 213.699 30.986C213.67 30.522 213.638 30.058 213.63 29.58C213.619 29.101 213.61 28.682 213.61 28.3C213.61 27.355 213.544 26.515 213.402 25.784C213.269 25.085 213.008 24.517 212.623 24.055C212.235 23.604 211.667 23.238 210.919 22.982C210.159 22.729 209.113 22.59 207.783 22.59H199.319V33.609H198.94H198.267V33.607ZM207.723 21.193C208.57 21.193 209.369 21.085 210.145 20.868C210.896 20.668 211.563 20.343 212.13 19.889C212.704 19.443 213.156 18.89 213.511 18.192C213.85 17.523 214.026 16.707 214.026 15.723C214.001 14.128 213.534 12.96 212.634 12.098C211.757 11.268 210.243 10.81 208.059 10.812L199.319 10.81V21.194H207.723V21.193Z" fill="white"/>
<path d="M222.967 33.111C221.574 32.439 220.397 31.526 219.456 30.366C218.52 29.206 217.804 27.862 217.318 26.326C216.838 24.804 216.587 23.188 216.587 21.487C216.587 19.783 216.838 18.163 217.318 16.643C217.803 15.105 218.52 13.763 219.456 12.605C220.396 11.442 221.574 10.521 222.964 9.84902C224.373 9.15902 225.982 8.81702 227.777 8.81702C229.58 8.81702 231.188 9.15902 232.589 9.84902C233.982 10.521 235.163 11.443 236.105 12.605C237.043 13.763 237.759 15.105 238.245 16.64C238.726 18.163 238.968 19.783 238.968 21.487C238.968 23.186 238.727 24.8 238.245 26.326C237.76 27.862 237.043 29.206 236.105 30.366C235.164 31.526 233.982 32.439 232.589 33.111C231.186 33.791 229.58 34.122 227.777 34.122C225.984 34.122 224.376 33.791 222.967 33.111ZM220.67 29.613C221.5 30.6 222.511 31.374 223.71 31.936C224.898 32.488 226.248 32.766 227.776 32.766C229.311 32.766 230.662 32.489 231.854 31.939C233.052 31.374 234.06 30.6 234.891 29.616C235.711 28.629 236.362 27.445 236.818 26.067C237.276 24.671 237.517 23.164 237.538 21.516C237.517 19.869 237.276 18.355 236.818 16.968C236.362 15.589 235.712 14.399 234.891 13.409C234.06 12.428 233.052 11.659 231.854 11.094C230.662 10.537 229.311 10.259 227.776 10.259C226.248 10.259 224.898 10.537 223.712 11.094C222.508 11.659 221.5 12.423 220.67 13.409C219.843 14.399 219.198 15.589 218.736 16.968C218.284 18.352 218.045 19.869 218.024 21.507C218.045 23.163 218.284 24.67 218.736 26.065V26.064C219.198 27.445 219.843 28.629 220.67 29.613Z" fill="white"/>
<path d="M258.587 9.38202H258.965V24.477C258.965 27.683 258.216 30.124 256.654 31.731C255.102 33.337 252.849 34.122 249.986 34.122C249.98 34.122 249.974 34.122 249.971 34.122C247.097 34.125 244.845 33.34 243.291 31.731C241.723 30.124 240.98 27.683 240.98 24.477V9.38202H241.359H242.405V24.477C242.408 27.251 243.038 29.291 244.245 30.665C245.445 32.022 247.319 32.732 249.971 32.736C252.621 32.732 254.492 32.022 255.693 30.665C256.897 29.289 257.538 27.25 257.538 24.477V9.38202H257.915H258.587Z" fill="white"/>
<path d="M261.456 33.607H261.077V9.40302H270.973C273.285 9.40302 275.136 9.95801 276.479 11.11C277.818 12.269 278.491 13.991 278.488 16.19C278.488 17.267 278.287 18.236 277.894 19.092C277.498 19.94 276.948 20.657 276.241 21.234C275.544 21.802 274.711 22.231 273.763 22.514C272.814 22.805 271.766 22.941 270.643 22.941H262.504V33.608H262.127H261.456V33.607ZM270.965 21.513C271.848 21.513 272.664 21.397 273.412 21.156C274.161 20.919 274.795 20.574 275.34 20.113C275.875 19.66 276.292 19.102 276.602 18.451C276.905 17.805 277.06 17.052 277.06 16.178C277.056 14.387 276.557 13.082 275.581 12.183C274.62 11.291 273.101 10.812 270.966 10.812L262.503 10.81V21.514H270.965V21.513Z" fill="white"/>
</svg>
