<svg width="99" height="10" fill="none" xmlns="http://www.w3.org/2000/svg"><path d="M.72 9V.6H3.9c.46 0 .876.096 1.248.288.372.188.666.456.882.804.22.348.33.756.33 1.224 0 .176-.022.362-.066.558a1.618 1.618 0 0 1-.234.54c-.112.168-.272.3-.48.396.268.064.48.184.636.36.156.176.272.38.348.612.08.228.132.46.156.696.024.232.036.442.036.63 0 .424-.114.81-.342 1.158-.228.344-.534.62-.918.828A2.669 2.669 0 0 1 4.224 9H.72Zm1.8-1.524h1.512c.208 0 .396-.048.564-.144.172-.1.308-.236.408-.408.104-.172.156-.368.156-.588a.959.959 0 0 0-.156-.522 1.172 1.172 0 0 0-.408-.408 1.05 1.05 0 0 0-.564-.156H2.52v2.226Zm0-3.726h1.164c.24 0 .446-.08.618-.24a.792.792 0 0 0 .258-.606c0-.248-.086-.438-.258-.57a.985.985 0 0 0-.618-.198H2.52V3.75Zm9.207 5.406a3.873 3.873 0 0 1-1.602-.336 4.22 4.22 0 0 1-1.32-.942A4.425 4.425 0 0 1 7.587 4.8a4.442 4.442 0 0 1 1.218-3.078c.38-.4.82-.712 1.32-.936a3.816 3.816 0 0 1 1.602-.342 3.83 3.83 0 0 1 1.608.342c.5.224.94.536 1.32.936.38.4.676.864.888 1.392a4.38 4.38 0 0 1 .324 1.686c0 .6-.108 1.164-.324 1.692a4.374 4.374 0 0 1-.888 1.386c-.38.4-.82.714-1.32.942-.5.224-1.036.336-1.608.336Zm0-1.8c.32 0 .62-.066.9-.198a2.48 2.48 0 0 0 1.254-1.368c.124-.308.186-.638.186-.99s-.062-.682-.186-.99a2.516 2.516 0 0 0-.504-.81 2.353 2.353 0 0 0-.75-.552 2.033 2.033 0 0 0-.9-.204c-.32 0-.622.068-.906.204-.28.132-.528.316-.744.552a2.602 2.602 0 0 0-.51.81c-.12.308-.18.638-.18.99s.06.682.18.99c.124.308.294.58.51.816.216.232.464.416.744.552.284.132.586.198.906.198ZM17.126 9V.6h2.784c.58 0 1.122.11 1.626.33.508.216.954.518 1.338.906.388.384.69.83.906 1.338.22.504.33 1.046.33 1.626 0 .58-.11 1.124-.33 1.632a4.277 4.277 0 0 1-2.244 2.244A4.084 4.084 0 0 1 19.91 9h-2.784Zm1.8-1.8h.984c.324 0 .63-.062.918-.186.288-.124.544-.296.768-.516a2.374 2.374 0 0 0 .522-2.628 2.374 2.374 0 0 0-.522-.762 2.374 2.374 0 0 0-.762-.522 2.311 2.311 0 0 0-.924-.186h-.984v4.8ZM25.253 9V.6h3.42c.46 0 .876.116 1.248.348.372.232.666.544.881.936.22.388.33.816.33 1.284 0 .36-.06.696-.18 1.008a2.584 2.584 0 0 1-1.296 1.392L31.649 9h-2.075l-1.896-3.264h-.625V9h-1.8Zm1.8-5.064h1.403c.16 0 .306-.04.439-.12a.966.966 0 0 0 .317-.33.871.871 0 0 0 .12-.45.871.871 0 0 0-.12-.45.914.914 0 0 0-.317-.324.8.8 0 0 0-.439-.126h-1.404v1.8Zm9.453 5.22a3.873 3.873 0 0 1-1.602-.336 4.22 4.22 0 0 1-1.32-.942A4.425 4.425 0 0 1 32.366 4.8a4.442 4.442 0 0 1 1.218-3.078c.38-.4.82-.712 1.32-.936a3.816 3.816 0 0 1 1.602-.342 3.83 3.83 0 0 1 1.608.342c.5.224.94.536 1.32.936.38.4.676.864.888 1.392a4.38 4.38 0 0 1 .324 1.686c0 .6-.108 1.164-.324 1.692a4.374 4.374 0 0 1-.888 1.386c-.38.4-.82.714-1.32.942-.5.224-1.036.336-1.608.336Zm0-1.8c.32 0 .62-.066.9-.198A2.48 2.48 0 0 0 38.66 5.79c.124-.308.186-.638.186-.99s-.062-.682-.186-.99a2.516 2.516 0 0 0-.504-.81 2.353 2.353 0 0 0-.75-.552 2.033 2.033 0 0 0-.9-.204c-.32 0-.622.068-.906.204-.28.132-.528.316-.744.552a2.602 2.602 0 0 0-.51.81c-.12.308-.18.638-.18.99s.06.682.18.99c.124.308.294.58.51.816.216.232.464.416.744.552.284.132.586.198.906.198ZM44.528 9 41.48.6h1.908l2.304 6.336L47.996.6h1.908L46.856 9h-2.328Z" fill="#FFAE1B"/><path d="M55.355 9.156a3.943 3.943 0 0 1-1.62-.336 4.149 4.149 0 0 1-1.314-.942 4.502 4.502 0 0 1-.882-1.392 4.498 4.498 0 0 1-.318-1.692c0-.612.11-1.182.33-1.71A4.33 4.33 0 0 1 53.777.78c.5-.22 1.03-.33 1.59-.33.644 0 1.252.15 1.824.45.576.3 1.064.726 1.464 1.278l-.75.408a3.268 3.268 0 0 0-1.158-.966 3.064 3.064 0 0 0-2.664-.06c-.396.18-.746.432-1.05.756a3.603 3.603 0 0 0-.972 2.49c0 .484.086.938.258 1.362.172.424.408.798.708 1.122.304.32.656.572 1.056.756.4.18.828.27 1.284.27.376 0 .732-.064 1.068-.192a3.35 3.35 0 0 0 1.638-1.38 3.45 3.45 0 0 0 .426-1.032H56.23V4.95h3.246a4.29 4.29 0 0 1-.348 1.632c-.22.508-.52.956-.9 1.344-.376.384-.81.686-1.302.906a3.84 3.84 0 0 1-1.572.324ZM60.935 9V.6h5.112v.84h-4.272v2.64h3.534v.84h-3.534v3.24h4.272V9h-5.112Zm10.457.156a3.873 3.873 0 0 1-1.602-.336 4.22 4.22 0 0 1-1.32-.942A4.425 4.425 0 0 1 67.252 4.8a4.442 4.442 0 0 1 1.218-3.078c.38-.4.82-.712 1.32-.936a3.816 3.816 0 0 1 1.602-.342A3.83 3.83 0 0 1 73 .786c.5.224.94.536 1.32.936.38.4.676.864.888 1.392a4.38 4.38 0 0 1 .324 1.686c0 .6-.108 1.164-.324 1.692a4.374 4.374 0 0 1-.888 1.386c-.38.4-.82.714-1.32.942-.5.224-1.036.336-1.608.336Zm0-.84c.46 0 .888-.092 1.284-.276a3.516 3.516 0 0 0 1.758-1.89c.172-.424.258-.874.258-1.35 0-.48-.086-.932-.258-1.356a3.513 3.513 0 0 0-.714-1.122c-.3-.324-.65-.578-1.05-.762a2.996 2.996 0 0 0-1.278-.276c-.46 0-.89.094-1.29.282a3.384 3.384 0 0 0-1.05.762 3.66 3.66 0 0 0-.708 1.122 3.631 3.631 0 0 0-.252 1.35c0 .484.086.938.258 1.362.172.424.408.798.708 1.122.304.324.654.578 1.05.762.4.18.828.27 1.284.27ZM76.989 9V.6h2.85c.448 0 .852.11 1.212.33a2.443 2.443 0 0 1 1.176 2.124c0 .412-.084.786-.252 1.122a2.336 2.336 0 0 1-.69.834c-.288.22-.614.366-.978.438L82.36 9h-.972l-2.022-3.486H77.83V9h-.84Zm.84-4.326h1.938c.296 0 .566-.072.81-.216a1.65 1.65 0 0 0 .81-1.446c0-.316-.074-.598-.222-.846a1.582 1.582 0 0 0-.588-.594 1.532 1.532 0 0 0-.81-.222H77.83v3.324Zm9.822 4.482a3.943 3.943 0 0 1-1.62-.336 4.149 4.149 0 0 1-1.314-.942 4.502 4.502 0 0 1-.882-1.392 4.498 4.498 0 0 1-.318-1.692c0-.612.11-1.182.33-1.71A4.33 4.33 0 0 1 86.073.78c.5-.22 1.03-.33 1.59-.33.644 0 1.252.15 1.824.45.576.3 1.064.726 1.464 1.278l-.75.408a3.268 3.268 0 0 0-1.158-.966 3.064 3.064 0 0 0-2.664-.06c-.396.18-.746.432-1.05.756a3.603 3.603 0 0 0-.972 2.49c0 .484.086.938.258 1.362.172.424.408.798.708 1.122.304.32.656.572 1.056.756.4.18.828.27 1.284.27.376 0 .732-.064 1.068-.192a3.35 3.35 0 0 0 1.638-1.38 3.45 3.45 0 0 0 .426-1.032h-2.268V4.95h3.246a4.29 4.29 0 0 1-.348 1.632c-.22.508-.52.956-.9 1.344-.376.384-.81.686-1.302.906a3.84 3.84 0 0 1-1.572.324ZM97.875.6h.99l-2.832 4.596V9h-.84V5.196L92.367.6h.99l2.256 3.678L97.875.6Z" fill="#fff"/></svg>